<svg width="489" height="477" viewBox="0 0 489 477" fill="none" xmlns="http://www.w3.org/2000/svg">
<path d="M451.125 142.664C451.125 152.664 451.125 210.664 451.125 218.664L433.125 210.664C433.125 198.664 430.625 166.164 430.625 157.664C424.359 155.156 387.125 144.164 378.625 142.664L380.408 197.531C399.739 209.354 441.625 232.852 464.125 245.664C465.843 287.739 460.625 402.164 460.625 402.164C460.625 402.164 334.899 464.038 306.625 476.664C303.625 447.664 303.815 415.71 303.815 415.71L327.186 409.164L327.207 441.664L435.625 387.994C435.625 387.994 439.125 303.699 439.125 259.164C419.237 248.623 385.625 227.852 355.708 209.354C354.752 186.121 355.708 135.158 355.708 118.664C377.125 116.164 442.625 139.664 451.125 142.664Z" fill="#02569B"/>
<path d="M257.864 0C257.864 0 257.864 227.852 255.716 325.657L234.625 334.664L210.125 324.164C208.625 264.164 209.537 1.07477 209.537 1.07477C209.537 1.07477 159.397 24.6676 142.677 35.5471C137.497 41.2789 137.203 48.3906 137.116 55.7421C137.168 96.9898 136.894 129.419 136.739 170.664C120.454 148.511 66.625 82.1641 66.625 82.1641C66.625 82.1641 15.659 112.507 0.62176 121.664C0.00245059 144.691 -0.000908257 341.489 5.97225e-05 387.942C13.625 397.164 48.125 417.664 71.002 430.985V214.955C88.1232 237.164 141.125 318.664 141.125 318.664C141.125 318.664 137.585 351.664 137.585 360.049C159.625 376.171 211.723 407.357 232.125 415.71C249.625 408.664 281.833 392.854 304.042 380.47C303.017 390.051 304.042 430.985 304.042 430.985L327.195 422.664C327.195 422.664 328.796 331.986 328.742 309.535C332.625 311.164 343.125 317.164 350.221 320.283V405.19C373.108 394.164 416.803 367.573 416.803 367.573L420.025 280.516C420.025 280.516 355.625 242.123 328.742 227.852V104.253C340.095 98.572 348.623 91.6641 363.862 84.1641C377.125 88.1315 453.125 116.252 465.125 121.664C465.125 130.252 466.625 208.664 465.125 218.664C467.125 219.664 480.625 225.852 488.625 227.852C488.625 223.352 488.625 103.664 488.625 97.1641C485.125 96.1641 375.125 58.1641 363.862 53.7387C353.265 60.2336 306.19 88.1315 306.19 88.1315C306.19 88.1315 304.704 217.164 304.704 242.123C330.125 255.664 382.125 284.664 392.371 291.768C392.371 302.164 393.199 340.704 393.199 351.427C389.465 356.23 380.143 359.253 374.921 362.199C374.991 344.552 378.801 322.263 373.108 305.169C361.526 288.057 322.807 269.239 304.042 266.544C303.9 287.557 303.146 308.655 303.573 329.666C303.749 338.354 303.952 348.334 297.762 354.504C276.89 364.856 255.794 378.987 234.625 387.994C206.625 376.664 171.671 356.164 162.671 351.164C162.671 336.164 162.671 307.164 162.671 307.164L49.125 148.264L44.1542 385.844L24.8237 376.171L25.8976 134.347C25.8976 134.347 49.2371 118.707 61.3368 116.076C81.0524 144.952 131.624 212.164 163.359 250.422C163.359 217.164 165.623 85.6641 168.401 51.5086C173.521 49.028 178.633 46.5281 183.763 44.0658C183.655 124.552 188.625 312.759 188.625 340.704C196.625 344.664 221.137 356.318 234.625 362.199C253.625 354.504 267.125 348.164 279.342 340.704C279.342 329.666 283.798 120.931 283.638 41.9162C296.623 44.0658 299.632 45.6641 306.132 47.1641C306.132 51.6641 306.132 93.1641 306.132 93.1641L327.125 81.6641L328.742 30.6641L257.864 0Z" fill="#02569B"/>
</svg>
