<svg width="422" height="477" viewBox="0 0 422 477" fill="none" xmlns="http://www.w3.org/2000/svg">
  <path d="M338.718 97c5.569.078 9.607 2.665 14.297 5.441 6.494 3.707 12.939 7.502 19.371 11.317 7.437 4.188 19.962 6.872 22.879 15.621-.119 2.281-.292 4.56-.493 6.836-1.423 14.775-1.423 14.775 3.761 27.926 6.933 5.387 15.062 7.403 22.732 11.238v26l-2 1c-2.583-1.113-5.001-2.526-7.459-3.885-10.731-6.044-21.463-12.122-32.471-17.646-3.475-2.466-6.534-5.215-7.541-9.447-.803-9.888-.379-20.018-.392-29.929.11-5.173.11-5.173-1.137-10.093-5.835-2.334-11.379-5.189-17-8l-1 62h2v2c8.012 2.108 14.792 7.476 22.187 11.062 13.187 6.485 25.683 14.239 38.63 21.168 4.006 3.249 5.91 6.626 6.554 11.692.15 3.671.169 7.322.146 10.996.154 40.091-.222 80.185.025 120.275-.103 11.063-.103 11.063-4.542 15.807-3.401 2.689-7.391 4.594-11 7h-3v2c-13.915 7.564-28.019 14.905-41.419 23.359-4.264 2.641-4.264 2.641-7.581 2.641v2c-20.48 11.171-40.817 22.544-60.754 34.676-4.898 2.966-9.854 5.761-14.899 8.468-6.986 3.872-17.008 12.856-25.347 12.856v2c-3.73 2.034-5.669 3-10 3-1.077-3.231-1.134-5.583-1.146-8.981-.076-14.83-.012-29.662-.096-44.492-.088-16.869-.088-16.869 3.242-23.527h2v-2c5.465-3.208 11.695-7.901 18-9 1.485 1.485 1.118 3.561 1.113 5.52-.001 14.493-.06 28.987-.113 43.48 2.883-2.05 5.316-4 9-4v-2c12.571-6.792 25.109-13.659 37.215-21.257 4.458-2.743 4.458-2.743 7.785-2.743v-2c9.52-5.193 22.832-17 33-17v-2c13.554-6.447 25.853-15.019 39-22.188 3.19-1.637 3.19-1.637 5-4.812.309-2.298.309-2.298.274-4.89.305-30.85.074-61.705.315-92.555.06-8.217 1.643-18.061-2.963-25.164-14.215-7.528-27.93-16.192-42.376-23.266-5.304-2.618-10.499-5.426-15.657-8.316-3.406-2.376-5.736-5.094-7.593-8.809-1.186-28.796-.077-57.686-.634-86.498.047-4.403.205-5.981 3.108-9.507 2.462-1.945 3.734-3.018 6.979-3.374" fill="#0e79b2"/>
  <path d="M252.084 3.688C248.489 1.362 245.617.628 241.397 0c-.267 96.885-.763 193.772-.845 290.658-.022 4.094.352 8.48-1.155 12.342-5.963 1.987-11.194 5.614-17 8-7.953.586-13.441-3.352-20-7a69 69 0 0 1-4-1c-1.091-2.836-1.091-2.836-1.131-5.29-.289-98.903-.597-197.807-.869-296.71-12.322-.4-27.852 13.362-38.34 18.773-8.131 4.184-16.245 8.312-23.918 13.301-4.824 5.333-5.098 11.95-5.179 18.79.049 38.378-.418 76.76-.563 115.136-2.686-3.651-5.274-7.381-8-11-8.966-10.317-10.301-17.895-10.137-31.413.321-24.523-.026-49.061.137-73.587-6.834-.181-14.836 4.49-20 9-7.803 11.438-4.887 30.786-5 44-3.197-3.024-5.423-7.44-7.816-11.088-3.748-5.713-7.61-11.603-13.747-14.725-1.467-.26-2.465-.437-3.455-.4-2.112.08-4.01 1.132-10.509 4.434-6.856 3.511-13.585 7.245-20.223 11.154-7.885 4.648-16.186 8.544-24.004 13.301C.78 111.706.058 118.629 0 125.384c.606 73.915-.154 147.844.136 221.761-.02 4.626-.044 9.3 1.146 13.807 2.226 6.089 6.964 8.769 12.397 11.74 8.23 4.377 16.45 8.794 24.444 13.588l1.5.5.774 1.22c6.295 1.879 11.84 6.213 17.46 9.531 3.465 2.074 5.356 2.632 9.54 3.469V200c4.595 1.884 7.526 9.264 10.101 13.266 1.918 2.943 3.787 5.924 5.899 8.734l1.103 1.645s.897.592 3.648 4.584c7.173 10.176 13.779 20.83 21.249 30.771h2c.419 2.811 1.265 4.416 2.82 6.848 5.481 7.646 12.038 15.767 14.392 24.997 1.04 4.076.924 8.446.688 17.328-.068 8.889-.369 17.937.1 26.827 3.449 10.349 14.61 14.048 23.315 18.965 14.147 8.022 28.302 16.035 42.497 23.973 3.392 1.873 6.731 3.748 9.93 5.945 2.404 1.651 4.557 3.012 7.258 4.117 5.932.767 11.728 1.158 17-2v-2c3 0 3 0 4.815-.851 16.656-9.844 33.282-19.731 50.185-29.149-1.458 13.621-1.1 27.334-1.139 41.011.011 2.243-.542 4.308 1.139 5.989 6.711-1.03 15.057-6.4 20.486-10.345 2.318-2.535 2.318-2.535 2.448-8.687-.535-31.305.141-62.66.066-93.968 1.516-.111 2.285-.168 3.002.001.74.173 1.423.586 2.81 1.425 3.744 2.216 7.831 4.233 10.938 7.304l1.25 1.27h2v79c3.142 0 3.142 0 18.119-9.083 13.351-8.111 27.158-15.458 40.881-22.917v-2l3-1c2.003-3.735 2.931-6.382 3.401-10.604.16-17.923.251-35.848.29-53.771.08-5.548.159-11.125-.691-16.625-.742-1.575-1.213-2.575-1.859-3.445-1.126-1.516-2.784-2.637-7.329-5.711-5.223-2.739-10.483-5.415-15.653-8.251-3.728-2.044-7.491-4.108-11.553-5.289l-1.606-.304v-2c-2.972-.881-2.972-.881-5.356-2.348a226 226 0 0 0-17.769-9.714c-6.157-3.014-11.9-6.623-17.875-9.938l-6-2V97l8-4c0-1.872 5.811-3.46 7-4 0 0 12.229-7.257 21-6 1 1 1 1 3.441 2.234 15.746 7.647 30.978 16.596 46.185 25.263 8.54 11.84.608 31.517 3.374 45.503 6.942 4.628 14.611 9.826 23 11 .242-17.692 8.044-62.997-7.229-74.71-10.538-5.483-21.185-10.828-31.428-16.853a422 422 0 0 0-16.763-9.444c-4.457-2.363-8.964-5.266-13.838-6.62L348.397 59v-2c-1.5-.937-1.5-.937-4-2-6.547-1.442-10.843-.523-17 2v2c-1.201 0-1.968 0-2.705.149-1.3.263-2.506.99-5.842 3-6.438 3.947-12.928 7.707-19.641 11.164-4.821 2.45-8.853 4.98-12.812 8.687-4.327 4.776-4.473 8.745-4.52 15.079.354 38.032.255 76.079.226 114.113.023 2.945-.004 5.875.294 8.808.987 2.381 1.638 3.95 2.616 5.278 1.888 2.564 4.997 4.229 14.11 9.11 6.126 3.212 12.272 6.425 18.262 9.885 11.247 6.564 23.072 11.994 34.421 18.369l10.463 5.929 4.377 2.898c2.322 4.921 2.322 4.921 2.229 10.531-.187 11.378-.181 22.76-.263 34.139-.04 3.119.823 8.24-1.195 10.838-.333.428-.822.734-1.695 1.282-5.108 2.913-10.202 5.854-15.325 8.741.046-11.523.081-23.047.097-34.57.034-6.295.231-12.444-1.785-18.492-3.265-4.82-8.232-7.637-13.332-10.172-3.997-1.929-7.908-4.204-12.21-5.37l-1.77-.396v-2c-13.14-3.954-23.089-16.004-37-18-.132 19.551-.834 39.181-.437 58.73.164 8.084.353 17.37-5.411 23.11-12.623 6.256-24.77 13.45-37.152 20.16v2c-3.375 0-3.375 0-9 3v2h-3c-2.358 1.556-4.422 2.904-7 4-5.93.842-10.253-1.526-15.25-4.5-2.929-1.891-5.224-3.368-8.61-4.219l-2.14-.281v-2c-3.995-2.066-7.988-4.429-12.329-5.66l-1.671-.34v-2c-5.453-1.636-10.084-5.219-15-8-4.311-1.643-8.315-3.225-11.771-6.317-1.679-4.896-2.534-7.39-2.87-9.952-.35-2.661-.14-5.395.288-10.969.229-6.834.174-13.674.352-20.509.196-6.231-3.057-11.074-5.999-16.253h-2l-2-6h-2c0-2.848 0-2.848-7.022-12.771-6.522-9.169-13.312-18.213-19.545-27.584-3.403-5.182-10.433-15.645-10.433-15.645s-.822-1.241-1.397-2c-.856-1.13-2.353-2.762-2.353-2.762-8.286-11.924-16.879-23.669-24.925-35.753-3.365-5.123-6.42-10.741-10.325-15.485-1.13 0-1.909-1.838-2.395-2.692-2.476-4.343-5.233-9.178-9.812-11.359-2.878-.443-5.055-.472-7.481 1.247-2.505 3.444-2.505 3.444-2.418 26.905.246 64.267 1.06 128.658-.894 192.899-4.465-2.27-8.907-4.604-13.625-6.312L26.397 352v-2h-2c.26-71.183.472-142.368.826-213.551.02-3.817.028-7.634.174-11.449 3.97-2.935 3.97-2.935 8.472-5.105 7.55-4.053 16.038-10.05 24.528-11.895 6.663 9.751 13.38 19.469 19.812 29.375 2.618 4.103 5.947 7.687 8.563 11.773 7.133 9.774 13.539 20.045 20.625 29.852 3.649 5.033 7.11 10.167 10.5 15.375 6.095 9.563 13.513 18.227 19.507 27.848 2.549 4.246 5.588 10.887 11.13 11.582 1.086.136 2.224-.148 4.863-.805.194-54.702.602-109.405.681-164.108.007-6.143-2.232-17.505 4.014-20.967 4.768-2.308 9.528-4.634 14.305-6.925-.109 80.622.022 161.247-.228 241.868q-.022 7.137-.013 14.274l-.005.812c-.038 5.654-.071 10.706 2.246 16.046 3.466 6.029 10.777 9.79 17.343 11.672l1.657.328v2c3.346 1.641 6.689 3.287 10 5 3.613 2.155 7.137 4.317 11 6 9.938 1.748 17.18-5.016 25.453-9.258 6.645-3.237 13.421-6.564 19.546-10.742l.001-2h2c3.093-6.187 4.344-11.163 4.387-18.047-.743-86.639-.211-173.311-.387-259.953 5.076 3.384 10.735 5.766 15.769 9.21.862 1.724 1.296 2.592 1.572 3.508 1.242 4.122 1.213 9.017 1.659 13.282 2.298 0 2.298 0 6.019-1.957 6.376-3.358 14.105-5.786 16.981-13.043.744-5.929.654-13.449-3.897-18-5.902-5.902-16.288-9.21-23.603-13-9.399-4.87-18.866-9.642-27.813-15.312" fill="#0e79b2"/>
</svg>
