<svg width="453" height="512" viewBox="0 0 453 512" fill="none" xmlns="http://www.w3.org/2000/svg">
<path d="M363.755 104.253C369.736 104.337 374.072 107.117 379.109 110.101C386.083 114.085 393.004 118.164 399.912 122.264C407.898 126.765 421.349 129.65 424.482 139.053C424.354 141.505 424.168 143.954 423.952 146.4C422.424 162.28 422.424 162.28 427.991 176.415C435.437 182.204 444.167 184.371 452.404 188.493V216.437L450.256 217.512C447.482 216.316 444.885 214.797 442.245 213.336C430.721 206.84 419.196 200.308 407.374 194.371C403.642 191.72 400.357 188.766 399.276 184.217C398.413 173.59 398.869 162.703 398.855 152.05C398.973 146.491 398.973 146.491 397.634 141.203C391.368 138.694 385.414 135.626 379.377 132.605L378.303 199.241H380.451V201.39C389.055 203.656 396.337 209.425 404.278 213.279C418.44 220.249 431.86 228.583 445.764 236.03C450.066 239.522 452.11 243.152 452.802 248.596C452.963 252.542 452.983 256.466 452.959 260.415C453.124 303.503 452.72 346.595 452.986 389.683C452.875 401.573 452.875 401.573 448.108 406.672C444.456 409.562 440.171 411.61 436.295 414.196H433.073V416.345C418.13 424.475 402.983 432.365 388.593 441.451C384.013 444.289 384.013 444.289 380.451 444.289V446.439C358.457 458.445 336.617 470.668 315.206 483.708C309.946 486.895 304.624 489.899 299.206 492.809C291.704 496.97 280.941 506.626 271.986 506.626V508.776C267.98 510.962 265.898 512 261.246 512C260.09 508.527 260.029 506 260.016 502.347C259.934 486.409 260.003 470.467 259.913 454.529C259.818 436.398 259.818 436.398 263.394 429.242H265.542V427.093C271.411 423.645 278.102 418.601 284.873 417.42C286.467 419.016 286.073 421.247 286.068 423.353C286.067 438.929 286.003 454.507 285.946 470.084C289.043 467.881 291.655 465.785 295.612 465.785V463.635C309.112 456.335 322.577 448.955 335.578 440.789C340.365 437.841 340.365 437.841 343.938 437.841V435.691C354.162 430.11 368.458 417.42 379.377 417.42V415.27C393.933 408.341 407.141 399.128 421.26 391.423C424.686 389.664 424.686 389.664 426.63 386.251C426.961 383.782 426.961 383.782 426.924 380.996C427.251 347.839 427.003 314.677 427.262 281.52C427.327 272.689 429.027 262.108 424.08 254.474C408.814 246.383 394.086 237.072 378.572 229.469C372.876 226.655 367.297 223.637 361.757 220.531C358.1 217.977 355.597 215.056 353.603 211.063C352.33 180.114 353.521 149.064 352.922 118.097C352.973 113.365 353.143 111.669 356.26 107.879C358.904 105.789 360.27 104.636 363.755 104.253Z" fill="#0E79B2"/>
<path d="M270.717 3.96377C266.857 1.46384 263.772 0.674958 259.24 0C258.954 104.13 258.421 208.261 258.333 312.392C258.309 316.792 258.711 321.506 257.092 325.657C250.689 327.792 245.071 331.69 238.836 334.255C230.295 334.885 224.401 330.652 217.358 326.731C215.915 326.416 214.483 326.058 213.062 325.657C211.89 322.609 211.89 322.609 211.847 319.971C211.537 213.673 211.206 107.373 210.914 1.07477C197.681 0.644865 181.003 15.4359 169.74 21.2515C161.008 25.7484 152.294 30.185 144.054 35.5471C138.874 41.2789 138.579 48.3906 138.492 55.7421C138.545 96.9898 138.043 138.242 137.888 179.487C135.003 175.563 132.224 171.554 129.296 167.665C119.668 156.576 118.234 148.432 118.41 133.903C118.755 107.546 118.382 81.1734 118.557 54.8135C111.218 54.619 102.625 59.6392 97.0789 64.4865C88.6991 76.7797 91.8306 97.5745 91.7093 111.777C88.276 108.526 85.8854 103.78 83.3155 99.8595C79.2905 93.7193 75.143 87.3888 68.5524 84.0334C66.977 83.7539 65.9052 83.5637 64.842 83.6035C62.5739 83.6895 60.5356 84.8201 53.5562 88.369C46.1935 92.1426 38.9671 96.1558 31.8384 100.357C23.3706 105.353 14.456 109.54 6.06011 114.653C0.837655 120.059 0.0622872 127.499 0 134.76C0.650794 214.201 -0.165383 293.658 0.146053 373.103C0.124574 378.074 0.0988002 383.098 1.37676 387.942C3.7673 394.486 8.85552 397.367 14.6901 400.56C23.5284 405.264 32.356 410.011 40.9409 415.164L42.5518 415.701L43.383 417.013C50.1433 419.032 56.0982 423.69 62.1336 427.256C65.8547 429.485 67.8855 430.085 72.3788 430.985V214.955C77.3134 216.98 80.4611 224.912 83.2264 229.213C85.2862 232.376 87.2933 235.58 89.5614 238.6L90.746 240.368C90.746 240.368 91.7093 241.004 94.6636 245.295C102.367 256.232 109.461 267.682 117.483 278.367H119.631C120.081 281.388 120.99 283.113 122.66 285.727C128.546 293.944 135.587 302.673 138.115 312.593C139.232 316.974 139.108 321.67 138.854 331.216C138.781 340.77 138.458 350.495 138.962 360.049C142.666 371.172 154.652 375.148 164 380.433C179.193 389.054 194.394 397.667 209.638 406.198C213.281 408.211 216.867 410.226 220.302 412.588C222.884 414.362 225.196 415.825 228.097 417.013C234.467 417.837 240.692 418.257 246.353 414.863V412.713C249.575 412.713 249.575 412.713 251.524 411.799C269.411 401.219 287.266 390.592 305.419 380.47C303.853 395.11 304.237 409.848 304.196 424.548C304.207 426.958 303.613 429.178 305.419 430.985C312.626 429.878 321.589 424.106 327.419 419.866C329.908 417.141 329.908 417.141 330.048 410.529C329.473 376.884 330.199 343.184 330.119 309.535C331.747 309.416 332.573 309.355 333.343 309.536C334.137 309.722 334.871 310.166 336.36 311.068C340.381 313.449 344.77 315.617 348.107 318.918L349.449 320.283H351.597V405.19C354.971 405.19 354.971 405.19 371.055 395.428C385.393 386.71 400.221 378.814 414.958 370.797V368.648L418.18 367.573C420.331 363.559 421.328 360.714 421.832 356.176C422.004 336.913 422.102 317.647 422.144 298.384C422.23 292.421 422.315 286.427 421.402 280.516C420.605 278.823 420.099 277.749 419.405 276.814C418.196 275.184 416.416 273.979 411.535 270.676C405.926 267.732 400.277 264.856 394.725 261.808C390.721 259.611 386.68 257.392 382.318 256.123L380.593 255.796V253.647C377.401 252.7 377.401 252.7 374.841 251.123C368.639 247.359 362.272 243.876 355.759 240.683C349.146 237.443 342.979 233.565 336.562 230.002L330.119 227.852V104.253L338.71 99.954C338.71 97.9421 344.951 96.2353 346.228 95.6549C346.228 95.6549 359.36 87.8553 368.78 89.2063C369.854 90.2811 369.854 90.2811 372.475 91.6073C389.385 99.8261 405.743 109.444 422.074 118.759C431.245 131.485 422.727 152.633 425.697 167.665C433.153 172.639 441.388 178.226 450.397 179.487C450.657 160.472 459.036 111.78 442.634 99.1909C431.317 93.298 419.883 87.5533 408.883 81.0778C402.96 77.5579 396.958 74.1736 390.881 70.9276C386.095 68.3879 381.254 65.2678 376.02 63.8126L374.149 63.4117V61.2621C372.539 60.2551 372.539 60.2551 369.854 59.1126C362.823 57.5628 358.209 58.5505 351.597 61.2621V63.4117C350.307 63.4117 349.484 63.4117 348.692 63.5718C347.296 63.8545 346.001 64.6359 342.418 66.7962C335.504 71.0383 328.535 75.0795 321.326 78.7949C316.148 81.4281 311.818 84.1473 307.567 88.1315C302.92 93.2646 302.763 97.5304 302.712 104.338C303.093 145.214 302.986 186.106 302.955 226.984C302.98 230.149 302.951 233.298 303.271 236.45C304.331 239.009 305.03 240.696 306.08 242.123C308.108 244.879 311.447 246.668 321.233 251.914C327.812 255.366 334.412 258.82 340.845 262.538C352.923 269.593 365.622 275.429 377.81 282.281L389.047 288.653L393.747 291.768C396.241 297.057 396.241 297.057 396.141 303.086C395.94 315.315 395.947 327.548 395.859 339.778C395.816 343.13 396.742 348.634 394.575 351.427C394.218 351.887 393.693 352.215 392.755 352.804C387.269 355.935 381.799 359.096 376.297 362.199C376.347 349.814 376.384 337.429 376.401 325.044C376.438 318.278 376.649 311.67 374.484 305.169C370.978 299.989 365.644 296.961 360.167 294.237C355.875 292.163 351.674 289.718 347.054 288.465L345.154 288.04V285.89C331.042 281.64 320.358 268.689 305.419 266.544C305.277 287.557 304.523 308.655 304.949 329.666C305.126 338.354 305.329 348.334 299.138 354.504C285.582 361.227 272.538 368.959 259.24 376.171V378.321C255.616 378.321 255.616 378.321 249.575 381.545V383.694H246.353C243.821 385.367 241.604 386.816 238.836 387.994C232.468 388.899 227.825 386.353 222.459 383.157C219.313 381.125 216.849 379.537 213.212 378.623L210.914 378.321V376.171C206.624 373.951 202.336 371.411 197.674 370.088L195.879 369.722V367.573C190.023 365.815 185.05 361.964 179.77 358.975C175.141 357.209 170.841 355.509 167.129 352.185C165.326 346.923 164.408 344.243 164.047 341.489C163.671 338.629 163.897 335.691 164.357 329.7C164.602 322.355 164.543 315.003 164.735 307.657C164.945 300.96 161.452 295.755 158.292 290.189H156.144L153.996 283.74H151.849C151.849 280.68 151.849 280.68 144.308 270.015C137.303 260.16 130.012 250.44 123.318 240.368C119.663 234.798 112.114 223.553 112.114 223.553C112.114 223.553 111.231 222.219 110.613 221.404C109.694 220.189 108.087 218.435 108.087 218.435C99.188 205.619 89.9599 192.996 81.3191 180.009C77.7054 174.503 74.4246 168.464 70.2309 163.366C69.0174 163.366 68.1808 161.39 67.6589 160.472C64.9999 155.805 62.0391 150.608 57.1216 148.264C54.0309 147.788 51.693 147.757 49.0877 149.604C46.3975 153.306 46.3975 153.306 46.4909 178.521C46.7551 247.594 47.6293 316.799 45.5308 385.844C40.7358 383.404 35.9655 380.896 30.8987 379.06L28.3482 378.321V376.171H26.2003C26.4796 299.665 26.7072 223.158 27.0874 146.652C27.1089 142.549 27.1175 138.447 27.2743 134.347C31.5377 131.192 31.5377 131.192 36.3725 128.86C44.4806 124.504 53.596 118.059 62.7135 116.076C69.869 126.556 77.0825 137 83.99 147.647C86.8015 152.057 90.3765 155.909 93.1859 160.3C100.846 170.805 107.726 181.844 115.335 192.385C119.254 197.794 122.971 203.312 126.612 208.909C133.157 219.187 141.123 228.499 147.56 238.84C150.298 243.403 153.562 250.541 159.513 251.288C160.679 251.434 161.902 251.129 164.736 250.422C164.944 191.63 165.382 132.837 165.467 74.0434C165.474 67.441 163.07 55.2294 169.778 51.5086C174.898 49.028 180.01 46.5281 185.14 44.0658C185.023 130.716 185.164 217.37 184.895 304.019C184.879 309.133 184.875 314.247 184.881 319.361L184.876 320.233C184.835 326.31 184.8 331.74 187.288 337.479C191.01 343.959 198.861 348.001 205.913 350.024L207.692 350.376V352.526C211.286 354.29 214.876 356.059 218.431 357.9C222.312 360.216 226.096 362.54 230.245 364.349C240.917 366.227 248.694 358.957 257.579 354.398C264.715 350.919 271.992 347.343 278.57 342.853L278.571 340.704H280.719C284.04 334.054 285.384 328.706 285.43 321.307C284.632 228.19 285.203 135.037 285.014 41.9162C290.466 45.5532 296.543 48.1134 301.949 51.8149C302.875 53.6678 303.341 54.6007 303.637 55.5852C304.971 60.0154 304.94 65.2764 305.419 69.8603C307.887 69.8603 307.887 69.8603 311.883 67.757C318.73 64.1479 327.03 61.5384 330.119 53.7387C330.918 47.3664 330.821 39.2841 325.934 34.3928C319.595 28.0495 308.442 24.4941 300.586 20.4207C290.492 15.1866 280.326 10.0577 270.717 3.96377Z" fill="#0E79B2"/>
</svg>
