<svg width="512" height="512" viewBox="0 0 512 512" fill="none" xmlns="http://www.w3.org/2000/svg">
<path d="M108.149 0.0497855C109.463 0.0424729 110.778 0.0351604 112.132 0.0276262C116.542 0.00890543 120.952 0.0237503 125.363 0.0384843C128.522 0.0321337 131.681 0.0237882 134.841 0.0135931C143.427 -0.00780729 152.013 0.000521863 160.599 0.0153701C169.577 0.0272213 178.554 0.0162362 187.531 0.00887233C202.609 0.000339393 217.686 0.011596 232.763 0.0339066C250.204 0.0594181 267.646 0.0511551 285.088 0.0253452C300.052 0.00408713 315.015 0.00106467 329.979 0.0133388C338.921 0.0206544 347.863 0.0216 356.805 0.00613644C365.211 -0.00738407 373.617 0.00195174 382.023 0.0290786C385.112 0.0352876 388.201 0.0334781 391.29 0.0231598C395.499 0.0103932 399.707 0.0263653 403.916 0.0497855C405.759 0.0341005 405.759 0.0341005 407.64 0.0180987C412.347 0.0690773 416.312 0.441212 420.714 2.15857C424.571 7.33561 423.936 13.0096 423.872 19.2116C423.882 20.6479 423.891 22.0843 423.901 23.5641C423.926 28.3975 423.906 33.2297 423.887 38.0631C423.895 41.5199 423.906 44.9766 423.92 48.4334C423.949 57.8374 423.937 67.2411 423.918 76.6451C423.902 86.4713 423.916 96.2975 423.926 106.124C423.938 123.685 423.919 141.247 423.887 158.809C423.859 174.739 423.864 190.668 423.893 206.598C423.926 225.087 423.939 243.577 423.92 262.066C423.911 271.857 423.909 281.648 423.93 291.439C423.948 300.642 423.936 309.845 423.899 319.048C423.891 322.432 423.894 325.817 423.907 329.201C423.924 333.808 423.903 338.414 423.872 343.021C423.886 344.372 423.9 345.723 423.914 347.115C423.797 355.933 423.797 355.933 420.719 360.074C415.118 362.256 409.767 362.233 403.846 362.182C401.864 362.193 401.864 362.193 399.841 362.205C395.405 362.223 390.97 362.208 386.534 362.194C383.357 362.2 380.18 362.208 377.002 362.219C368.368 362.24 359.733 362.232 351.099 362.217C342.073 362.205 333.047 362.216 324.021 362.223C308.864 362.232 293.707 362.221 278.55 362.198C261.01 362.173 243.471 362.181 225.931 362.207C210.887 362.228 195.843 362.231 180.798 362.219C171.806 362.212 162.815 362.211 153.823 362.226C145.372 362.24 136.921 362.23 128.47 362.203C125.363 362.197 122.256 362.199 119.149 362.209C114.919 362.222 110.69 362.206 106.459 362.182C105.22 362.193 103.98 362.203 102.703 362.214C94.3817 362.124 94.3817 362.124 91.0146 359.585C87.4074 354.81 88.3409 348.78 88.3809 343.021C88.3725 341.584 88.3641 340.148 88.3554 338.668C88.333 333.835 88.3442 329.002 88.3553 324.169C88.3464 320.712 88.3355 317.256 88.3228 313.799C88.2948 304.395 88.2967 294.991 88.3056 285.587C88.3104 277.747 88.3009 269.906 88.2915 262.066C88.2683 242.519 88.274 222.971 88.2928 203.424C88.3083 186.437 88.2881 169.451 88.2508 152.464C88.2127 135.031 88.1983 117.599 88.2081 100.166C88.2134 90.3752 88.2095 80.5846 88.1827 70.7937C88.1586 61.5904 88.1646 52.3876 88.1941 43.1843C88.1999 39.7998 88.1949 36.4153 88.1787 33.0309C88.1582 28.4239 88.1759 23.8186 88.2036 19.2116C88.1886 17.8605 88.1737 16.5094 88.1582 15.1174C88.268 6.29684 88.268 6.29684 91.35 2.15857C96.9289 -0.0172386 102.251 -0.000400881 108.149 0.0497855Z" fill="#32407B"/>
<path d="M31.4344 387.364C33.8781 387.34 33.8781 387.34 36.3712 387.315C38.159 387.329 39.9467 387.343 41.7886 387.357C44.6397 387.343 44.6397 387.343 47.5484 387.328C52.8271 387.307 58.1044 387.315 63.3831 387.334C69.0745 387.348 74.7658 387.326 80.4573 387.309C91.6078 387.281 102.758 387.287 113.909 387.305C122.969 387.319 132.03 387.321 141.09 387.315C142.379 387.314 143.667 387.313 144.995 387.312C147.612 387.31 150.23 387.308 152.847 387.306C177.403 387.288 201.959 387.308 226.515 387.342C247.594 387.37 268.674 387.365 289.753 387.336C314.22 387.303 338.686 387.289 363.153 387.309C365.761 387.311 368.369 387.313 370.977 387.315C372.26 387.316 373.544 387.316 374.866 387.317C383.918 387.323 392.969 387.314 402.021 387.299C413.049 387.282 424.077 387.286 435.105 387.32C440.734 387.336 446.363 387.342 451.992 387.322C458.088 387.3 464.183 387.326 470.279 387.357C472.066 387.343 473.854 387.329 475.696 387.315C477.325 387.331 478.954 387.348 480.633 387.364C482.04 387.365 483.448 387.366 484.898 387.367C489.86 388.404 491.75 390.509 494.894 394.401C495.603 397.979 495.603 397.979 495.504 401.847C495.474 403.932 495.474 403.932 495.443 406.059C495.365 408.216 495.365 408.216 495.285 410.417C495.256 411.879 495.228 413.341 495.199 414.848C495.126 418.451 495.023 422.05 494.894 425.651C496.617 425.599 498.34 425.547 500.115 425.493C505.823 425.651 505.823 425.651 509.726 428.19C512.067 431.901 512.067 431.901 511.97 436.784C510.506 441.277 510.506 441.277 505.823 444.402C502.045 444.797 502.045 444.797 497.462 444.804C495.716 444.814 493.97 444.824 492.172 444.834C489.283 444.827 489.283 444.827 486.335 444.82C484.296 444.827 482.256 444.834 480.155 444.841C474.481 444.86 468.808 444.86 463.135 444.856C457.021 444.855 450.907 444.873 444.793 444.887C432.811 444.913 420.828 444.922 408.846 444.924C399.11 444.925 389.373 444.932 379.637 444.942C352.051 444.969 324.465 444.983 296.879 444.981C295.391 444.981 293.903 444.981 292.37 444.981C290.135 444.981 290.135 444.981 287.855 444.98C263.701 444.979 239.548 445.009 215.394 445.053C190.611 445.098 165.828 445.12 141.045 445.117C127.124 445.116 113.203 445.124 99.2816 445.158C87.4307 445.186 75.5801 445.193 63.7292 445.172C57.6797 445.162 51.6306 445.162 45.5811 445.189C39.0304 445.218 32.4808 445.198 25.9301 445.174C23.0464 445.198 23.0464 445.198 20.1045 445.223C17.4798 445.201 17.4798 445.201 14.8021 445.179C13.2894 445.18 11.7768 445.181 10.2182 445.181C5.07878 444.173 3.17489 442.243 0 438.152C0.107781 433.729 1.00049 431.243 3.31751 427.507C7.76303 424.689 12.0265 425.538 17.173 425.651C17.1403 424.737 17.1076 423.824 17.0739 422.882C16.9438 418.727 16.8628 414.573 16.7827 410.417C16.7304 408.979 16.678 407.541 16.6241 406.059C16.604 404.669 16.5839 403.279 16.5632 401.847C16.5305 400.571 16.4977 399.294 16.4641 397.979C18.0757 389.845 23.7577 387.37 31.4344 387.364Z" fill="#F6D211"/>
<path d="M108.149 0.0497855C109.463 0.0424729 110.778 0.0351604 112.132 0.0276262C116.542 0.00890543 120.952 0.0237503 125.363 0.0384843C128.522 0.0321337 131.681 0.0237882 134.841 0.0135931C143.427 -0.00780729 152.013 0.000521863 160.599 0.0153701C169.577 0.0272213 178.554 0.0162362 187.531 0.00887233C202.609 0.000339393 217.686 0.011596 232.763 0.0339066C250.204 0.0594181 267.646 0.0511551 285.088 0.0253452C300.052 0.00408713 315.015 0.00106467 329.979 0.0133388C338.921 0.0206544 347.863 0.0216 356.805 0.00613644C365.211 -0.00738407 373.617 0.00195174 382.023 0.0290786C385.112 0.0352876 388.201 0.0334781 391.29 0.0231598C395.499 0.0103932 399.707 0.0263653 403.916 0.0497855C405.759 0.0341005 405.759 0.0341005 407.64 0.0180987C412.347 0.0690773 416.312 0.441212 420.714 2.15857C424.571 7.33561 423.936 13.0096 423.872 19.2116C423.882 20.6479 423.891 22.0843 423.901 23.5641C423.926 28.3975 423.906 33.2297 423.887 38.0631C423.895 41.5199 423.906 44.9766 423.92 48.4334C423.949 57.8374 423.937 67.2411 423.918 76.6451C423.902 86.4713 423.916 96.2975 423.926 106.124C423.938 123.685 423.919 141.247 423.887 158.809C423.859 174.739 423.864 190.668 423.893 206.598C423.926 225.087 423.939 243.577 423.92 262.066C423.911 271.857 423.909 281.648 423.93 291.439C423.948 300.642 423.936 309.845 423.899 319.048C423.891 322.432 423.894 325.817 423.907 329.201C423.924 333.808 423.903 338.414 423.872 343.021C423.886 344.372 423.9 345.723 423.914 347.115C423.797 355.933 423.797 355.933 420.719 360.074C415.118 362.256 409.767 362.233 403.846 362.182C401.864 362.193 401.864 362.193 399.841 362.205C395.405 362.223 390.97 362.208 386.534 362.194C383.357 362.2 380.18 362.208 377.002 362.219C368.368 362.24 359.733 362.232 351.099 362.217C342.073 362.205 333.047 362.216 324.021 362.223C308.864 362.232 293.707 362.221 278.55 362.198C261.01 362.173 243.471 362.181 225.931 362.207C210.887 362.228 195.843 362.231 180.798 362.219C171.806 362.212 162.815 362.211 153.823 362.226C145.372 362.24 136.921 362.23 128.47 362.203C125.363 362.197 122.256 362.199 119.149 362.209C114.919 362.222 110.69 362.206 106.459 362.182C105.22 362.193 103.98 362.203 102.703 362.214C94.3817 362.124 94.3817 362.124 91.0146 359.585C87.4074 354.81 88.3409 348.78 88.3809 343.021C88.3725 341.584 88.3641 340.148 88.3554 338.668C88.333 333.835 88.3442 329.002 88.3553 324.169C88.3464 320.712 88.3355 317.256 88.3228 313.799C88.2948 304.395 88.2967 294.991 88.3056 285.587C88.3104 277.747 88.3009 269.906 88.2915 262.066C88.2683 242.519 88.274 222.971 88.2928 203.424C88.3083 186.437 88.2881 169.451 88.2508 152.464C88.2127 135.031 88.1983 117.599 88.2081 100.166C88.2134 90.3752 88.2095 80.5846 88.1827 70.7937C88.1586 61.5904 88.1646 52.3876 88.1941 43.1843C88.1999 39.7998 88.1949 36.4153 88.1787 33.0309C88.1582 28.4239 88.1759 23.8186 88.2036 19.2116C88.1886 17.8605 88.1737 16.5094 88.1582 15.1174C88.268 6.29684 88.268 6.29684 91.35 2.15857C96.9289 -0.0172386 102.251 -0.000400881 108.149 0.0497855ZM106.159 19.3953C106.159 126.647 106.159 233.898 106.159 344.399C205.076 344.399 303.992 344.399 405.906 344.399C405.906 237.148 405.906 129.897 405.906 19.3953C306.989 19.3953 208.073 19.3953 106.159 19.3953Z" fill="#FCD60E"/>
<path d="M138.268 35.9873C139.837 35.9763 139.837 35.9763 141.438 35.9651C144.951 35.9464 148.463 35.9613 151.976 35.976C154.492 35.9696 157.007 35.9613 159.523 35.9511C166.361 35.9297 173.199 35.938 180.037 35.9529C187.186 35.9647 194.334 35.9537 201.483 35.9464C213.489 35.9378 225.495 35.9491 237.501 35.9714C251.391 35.9969 265.281 35.9887 279.172 35.9628C291.087 35.9416 303.002 35.9386 314.918 35.9508C322.039 35.9582 329.16 35.9591 336.281 35.9436C342.975 35.9301 349.669 35.9394 356.363 35.9666C358.823 35.9728 361.283 35.971 363.744 35.9607C367.095 35.9479 370.446 35.9639 373.798 35.9873C375.675 35.9891 377.553 35.9908 379.488 35.9926C384.049 36.5825 384.049 36.5825 386.993 38.6406C389.869 42.9856 389.431 47.7472 389.41 52.7876C389.418 53.9106 389.426 55.0337 389.435 56.1907C389.445 58.564 389.443 60.9373 389.429 63.3105C389.416 66.9364 389.461 70.5583 389.511 74.1837C389.513 76.4919 389.512 78.8001 389.508 81.1082C389.525 82.1892 389.543 83.2701 389.561 84.3838C389.49 89.2895 389.158 92.259 386.206 96.2442C381.291 99.9977 378.328 99.8692 372.178 99.877C370.627 99.8916 370.627 99.8916 369.045 99.9065C365.584 99.9315 362.124 99.9117 358.662 99.8921C356.18 99.9005 353.697 99.9117 351.215 99.9252C344.473 99.9538 337.732 99.9427 330.991 99.9229C323.939 99.9071 316.886 99.9217 309.834 99.9315C297.991 99.9429 286.148 99.9279 274.305 99.8982C260.609 99.8641 246.913 99.8752 233.217 99.9096C221.462 99.9379 209.707 99.9419 197.952 99.9256C190.929 99.9158 183.907 99.9146 176.885 99.9352C170.282 99.9532 163.681 99.9407 157.079 99.9046C154.655 99.8963 152.231 99.8987 149.806 99.9125C146.499 99.9295 143.194 99.9082 139.887 99.877C138.036 99.8746 136.185 99.8723 134.278 99.8698C128.588 98.9178 126.736 97.4274 123.332 92.8333C122.729 88.7005 122.491 85.2317 122.558 81.1082C122.556 79.9837 122.553 78.8592 122.551 77.7006C122.553 75.33 122.571 72.9594 122.604 70.5891C122.649 66.9603 122.636 63.335 122.616 59.706C122.625 57.3998 122.639 55.0937 122.655 52.7876C122.651 51.7035 122.646 50.6194 122.641 49.5025C122.786 42.0947 122.786 42.0947 125.073 38.6406C129.449 35.5804 132.965 35.9923 138.268 35.9873Z" fill="#FAD40F"/>
<path d="M35.9062 406.898C181.19 406.898 326.473 406.898 476.159 406.898C476.159 413.086 476.159 419.274 476.159 425.649C330.876 425.649 185.592 425.649 35.9062 425.649C35.9062 419.461 35.9062 413.274 35.9062 406.898Z" fill="#2E3D7C"/>
<path d="M70.5698 459.628C71.914 459.619 73.2582 459.61 74.6432 459.601C76.1207 459.607 77.5982 459.612 79.1204 459.619C80.6894 459.613 82.2584 459.607 83.875 459.6C89.157 459.584 94.4387 459.591 99.7207 459.597C103.498 459.59 107.274 459.582 111.051 459.573C120.259 459.554 129.467 459.55 138.675 459.553C146.157 459.556 153.639 459.554 161.121 459.547C162.185 459.546 163.249 459.545 164.345 459.544C166.506 459.542 168.667 459.54 170.829 459.538C191.105 459.521 211.381 459.525 231.658 459.534C250.22 459.542 268.782 459.525 287.344 459.495C306.391 459.465 325.439 459.452 344.487 459.458C355.185 459.461 365.884 459.457 376.583 459.435C386.639 459.414 396.695 459.418 406.752 459.439C410.45 459.442 414.149 459.438 417.848 459.425C422.881 459.409 427.914 459.421 432.947 459.441C434.425 459.43 435.902 459.418 437.425 459.406C438.769 459.418 440.113 459.429 441.498 459.44C443.242 459.44 443.242 459.44 445.02 459.44C448.958 460.199 450.343 461.544 452.743 464.713C453.748 472.761 453.748 472.761 450.774 476.689C447.413 479.273 445.705 479.362 441.498 479.362C440.154 479.373 438.81 479.384 437.425 479.396C435.947 479.384 434.47 479.373 432.947 479.361C431.378 479.367 429.809 479.373 428.193 479.38C422.911 479.395 417.629 479.376 412.347 479.358C408.57 479.362 404.794 479.367 401.017 479.375C391.809 479.388 382.601 479.38 373.393 479.361C362.675 479.339 351.957 479.342 341.239 479.345C322.119 479.35 302.999 479.332 283.879 479.301C265.316 479.272 246.752 479.261 228.189 479.269C207.986 479.279 187.784 479.279 167.581 479.261C165.428 479.259 163.275 479.257 161.121 479.255C159.532 479.254 159.532 479.254 157.911 479.252C150.436 479.246 142.96 479.247 135.485 479.25C125.429 479.253 115.373 479.24 105.316 479.215C101.618 479.209 97.9188 479.207 94.22 479.212C89.1867 479.217 84.1538 479.203 79.1204 479.183C77.643 479.189 76.1655 479.195 74.6432 479.201C73.299 479.192 71.9547 479.183 70.5698 479.174C69.4074 479.172 68.2451 479.171 67.0475 479.17C64.0087 478.776 64.0087 478.776 59.3252 475.651C58.7031 472.721 58.7031 472.721 58.7397 469.401C58.7276 468.305 58.7156 467.21 58.7031 466.081C60.0242 459.858 65.2121 459.635 70.5698 459.628Z" fill="#F6F7F9"/>
<path d="M140.506 53.7734C216.239 53.7734 291.972 53.7734 369.999 53.7734C369.999 62.5392 369.999 71.3049 369.999 80.3363C294.267 80.3363 218.534 80.3363 140.506 80.3363C140.506 71.5705 140.506 62.8048 140.506 53.7734Z" fill="#324079"/>
<path d="M119.515 493.808C120.727 493.8 121.939 493.793 123.187 493.786C127.261 493.767 131.335 493.782 135.409 493.796C138.324 493.79 141.24 493.782 144.155 493.772C152.083 493.75 160.011 493.759 167.94 493.773C176.226 493.785 184.512 493.774 192.799 493.767C206.716 493.758 220.633 493.77 234.55 493.792C250.653 493.817 266.757 493.809 282.86 493.783C296.672 493.762 310.483 493.759 324.294 493.771C332.55 493.779 340.805 493.78 349.061 493.764C356.821 493.751 364.581 493.76 372.341 493.787C375.194 493.793 378.047 493.791 380.9 493.781C384.785 493.768 388.669 493.784 392.554 493.808C393.691 493.797 394.828 493.787 396 493.776C400.494 493.829 403.631 493.936 407.45 496.43C410.147 500.972 408.565 505.093 407.469 510.028C404.802 512.698 401.434 511.79 397.875 511.807C396.716 511.805 395.556 511.802 394.361 511.8C392.527 511.805 392.527 511.805 390.655 511.81C386.525 511.82 382.394 511.819 378.264 511.818C375.316 511.822 372.367 511.828 369.419 511.834C361.388 511.847 353.356 511.851 345.325 511.852C338.632 511.854 331.939 511.859 325.246 511.865C309.463 511.878 293.679 511.881 277.896 511.88C261.586 511.879 245.277 511.896 228.968 511.921C214.99 511.941 201.011 511.949 187.033 511.948C178.674 511.948 170.314 511.952 161.955 511.969C154.096 511.984 146.238 511.984 138.379 511.973C135.488 511.971 132.596 511.975 129.705 511.984C125.772 511.996 121.839 511.989 117.905 511.977C116.171 511.989 116.171 511.989 114.402 512.001C106.517 511.947 106.517 511.947 103.038 508.466C102.186 500.448 102.186 500.448 104.674 496.485C109.33 493.305 114.072 493.758 119.515 493.808Z" fill="#FEFEFE"/>
<path d="M141.573 243.721C143.568 243.709 143.568 243.709 145.603 243.696C148.416 243.686 151.228 243.688 154.04 243.702C158.341 243.715 162.639 243.67 166.939 243.62C169.672 243.618 172.405 243.619 175.138 243.624C176.423 243.606 177.708 243.588 179.032 243.57C184.675 243.639 187.981 243.82 192.833 246.864C196.017 252.071 195.955 255.89 195.977 261.977C195.983 263.063 195.989 264.149 195.995 265.268C195.999 267.559 195.987 269.849 195.961 272.139C195.928 275.639 195.961 279.133 196.001 282.632C195.997 284.861 195.989 287.091 195.977 289.321C195.97 291.343 195.963 293.366 195.955 295.449C195.147 300.649 195.147 300.649 192.808 304.431C187.215 307.966 181.947 307.795 175.535 307.73C174.242 307.736 172.949 307.742 171.616 307.748C168.887 307.752 166.157 307.74 163.428 307.714C159.254 307.681 155.084 307.714 150.91 307.754C148.255 307.75 145.6 307.742 142.945 307.73C141.699 307.742 140.454 307.755 139.17 307.768C133.856 307.678 130.218 307.3 125.668 304.455C122.514 299.315 122.463 294.78 122.558 288.924C122.556 287.8 122.554 286.675 122.552 285.517C122.554 283.146 122.572 280.776 122.605 278.405C122.65 274.776 122.637 271.151 122.616 267.522C122.626 265.216 122.639 262.91 122.656 260.604C122.651 259.52 122.647 258.436 122.642 257.319C122.789 249.799 122.789 249.799 125.338 246.459C130.029 242.851 135.885 243.701 141.573 243.721Z" fill="#F7F8FA"/>
<path d="M141.97 165.653C143.339 165.648 144.707 165.644 146.117 165.639C149.009 165.636 151.901 165.644 154.794 165.664C159.224 165.689 163.653 165.664 168.084 165.634C170.893 165.637 173.702 165.643 176.511 165.653C177.839 165.643 179.166 165.634 180.533 165.624C189.757 165.734 189.757 165.734 193.155 168.332C196.391 172.603 195.815 177.389 195.77 182.535C195.775 183.662 195.779 184.789 195.784 185.949C195.787 188.329 195.778 190.709 195.759 193.089C195.734 196.731 195.758 200.371 195.788 204.014C195.785 206.327 195.779 208.64 195.77 210.953C195.784 212.587 195.784 212.587 195.799 214.253C195.689 221.812 195.689 221.812 193.155 225.156C188.372 228.813 182.3 227.877 176.511 227.836C175.143 227.84 173.775 227.845 172.365 227.85C169.473 227.853 166.58 227.844 163.688 227.825C159.257 227.799 154.829 227.824 150.398 227.854C147.589 227.851 144.78 227.845 141.97 227.836C140.643 227.845 139.316 227.855 137.949 227.865C128.725 227.754 128.725 227.754 125.327 225.156C122.091 220.886 122.667 216.099 122.712 210.953C122.707 209.827 122.703 208.7 122.698 207.539C122.695 205.159 122.704 202.779 122.723 200.4C122.748 196.757 122.723 193.117 122.693 189.475C122.697 187.162 122.703 184.848 122.712 182.535C122.702 181.446 122.693 180.357 122.683 179.235C122.793 171.677 122.793 171.677 125.327 168.332C130.11 164.675 136.182 165.611 141.97 165.653Z" fill="#FCFCFD"/>
<path d="M226.812 284.419C228.175 284.404 229.539 284.388 230.944 284.372C232.435 284.379 233.927 284.386 235.464 284.394C237.825 284.378 237.825 284.378 240.234 284.361C245.45 284.333 250.665 284.339 255.882 284.348C259.5 284.34 263.119 284.332 266.737 284.323C274.327 284.309 281.916 284.313 289.506 284.328C299.241 284.346 308.976 284.314 318.711 284.269C326.186 284.24 333.66 284.241 341.135 284.25C344.724 284.25 348.314 284.24 351.904 284.221C356.92 284.198 361.934 284.214 366.951 284.241C368.439 284.226 369.927 284.211 371.461 284.195C381.465 284.308 381.465 284.308 386.589 287.894C388.734 291.275 388.734 291.275 388.637 296.158C387.173 300.65 387.173 300.65 382.49 303.775C379.419 304.177 379.419 304.177 375.864 304.193C373.838 304.213 373.838 304.213 371.772 304.234C370.295 304.232 368.818 304.231 367.296 304.229C364.957 304.245 364.957 304.245 362.572 304.261C357.406 304.291 352.242 304.297 347.076 304.3C343.493 304.31 339.909 304.321 336.326 304.332C328.81 304.35 321.294 304.356 313.777 304.354C304.137 304.354 294.497 304.397 284.856 304.451C277.454 304.485 270.052 304.492 262.649 304.49C259.095 304.494 255.54 304.507 251.985 304.532C247.017 304.562 242.051 304.553 237.084 304.534C234.873 304.561 234.873 304.561 232.618 304.588C222.679 304.491 222.679 304.491 217.646 300.853C214.902 296.707 214.568 294.592 215.443 289.713C218.907 285.232 221.234 284.437 226.812 284.419Z" fill="#F6F6F9"/>
<path d="M226.812 246.919C228.175 246.904 229.539 246.888 230.944 246.872C232.435 246.879 233.927 246.886 235.464 246.894C237.825 246.878 237.825 246.878 240.234 246.861C245.45 246.833 250.665 246.839 255.882 246.848C259.5 246.84 263.119 246.832 266.737 246.823C274.327 246.809 281.916 246.813 289.506 246.828C299.241 246.846 308.976 246.814 318.711 246.769C326.186 246.74 333.66 246.741 341.135 246.75C344.724 246.75 348.314 246.74 351.904 246.721C356.92 246.698 361.934 246.714 366.951 246.741C368.439 246.726 369.927 246.711 371.461 246.695C381.465 246.808 381.465 246.808 386.589 250.394C388.734 253.775 388.734 253.775 388.637 258.658C387.173 263.15 387.173 263.15 382.49 266.275C379.419 266.677 379.419 266.677 375.864 266.693C373.838 266.713 373.838 266.713 371.772 266.734C370.295 266.732 368.818 266.731 367.296 266.729C364.957 266.745 364.957 266.745 362.572 266.761C357.406 266.791 352.242 266.797 347.076 266.8C343.493 266.81 339.909 266.821 336.326 266.832C328.81 266.85 321.294 266.856 313.777 266.854C304.137 266.854 294.497 266.897 284.856 266.951C277.454 266.985 270.052 266.992 262.649 266.99C259.095 266.994 255.54 267.007 251.985 267.032C247.017 267.062 242.051 267.053 237.084 267.034C234.873 267.061 234.873 267.061 232.618 267.088C222.679 266.991 222.679 266.991 217.646 263.353C214.902 259.207 214.568 257.092 215.443 252.213C218.907 247.732 221.234 246.937 226.812 246.919Z" fill="#F6F6F9"/>
<path d="M226.881 206.297C228.95 206.278 228.95 206.278 231.06 206.257C232.569 206.267 234.077 206.276 235.632 206.286C237.224 206.278 238.816 206.27 240.456 206.261C245.73 206.241 251.003 206.254 256.278 206.27C259.935 206.267 263.592 206.262 267.25 206.256C274.919 206.25 282.589 206.26 290.258 206.281C300.102 206.308 309.946 206.293 319.789 206.265C327.343 206.248 334.896 206.253 342.45 206.265C346.08 206.268 349.71 206.265 353.34 206.254C358.409 206.242 363.477 206.26 368.545 206.286C370.808 206.272 370.808 206.272 373.117 206.257C374.496 206.271 375.875 206.284 377.296 206.297C379.093 206.3 379.093 206.3 380.927 206.303C384.905 207.054 386.294 208.399 388.734 211.58C389.32 215.486 389.32 215.486 388.734 219.393C386.294 222.574 384.905 223.919 380.927 224.67C379.729 224.672 378.53 224.674 377.296 224.676C375.917 224.689 374.538 224.702 373.117 224.716C371.608 224.706 370.1 224.697 368.545 224.687C366.953 224.695 365.361 224.703 363.721 224.712C358.447 224.732 353.174 224.719 347.899 224.703C344.242 224.706 340.585 224.711 336.928 224.716C329.258 224.723 321.588 224.713 313.919 224.691C304.075 224.665 294.231 224.68 284.388 224.708C276.834 224.725 269.281 224.72 261.727 224.708C258.097 224.704 254.467 224.708 250.837 224.719C245.768 224.731 240.7 224.713 235.632 224.687C233.369 224.701 233.369 224.701 231.06 224.716C229.681 224.702 228.302 224.689 226.881 224.676C225.084 224.673 225.084 224.673 223.25 224.67C219.272 223.919 217.883 222.574 215.443 219.393C214.858 215.486 214.858 215.486 215.443 211.58C218.91 207.06 221.279 206.306 226.881 206.297Z" fill="#FEFEFE"/>
<path d="M226.881 168.797C228.95 168.778 228.95 168.778 231.06 168.757C232.569 168.767 234.077 168.776 235.632 168.786C237.224 168.778 238.816 168.77 240.456 168.761C245.73 168.741 251.003 168.754 256.278 168.77C259.935 168.767 263.592 168.762 267.25 168.756C274.919 168.75 282.589 168.76 290.258 168.781C300.102 168.808 309.946 168.793 319.789 168.765C327.343 168.748 334.896 168.753 342.45 168.765C346.08 168.768 349.71 168.765 353.34 168.754C358.409 168.742 363.477 168.76 368.545 168.786C370.808 168.772 370.808 168.772 373.117 168.757C374.496 168.771 375.875 168.784 377.296 168.797C379.093 168.8 379.093 168.8 380.927 168.803C384.905 169.554 386.294 170.899 388.734 174.08C389.32 177.986 389.32 177.986 388.734 181.893C386.294 185.074 384.905 186.419 380.927 187.17C379.729 187.172 378.53 187.174 377.296 187.176C375.917 187.189 374.538 187.202 373.117 187.216C371.608 187.206 370.1 187.197 368.545 187.187C366.953 187.195 365.361 187.203 363.721 187.212C358.447 187.232 353.174 187.219 347.899 187.203C344.242 187.206 340.585 187.211 336.928 187.216C329.258 187.223 321.588 187.213 313.919 187.191C304.075 187.165 294.231 187.18 284.388 187.208C276.834 187.225 269.281 187.22 261.727 187.208C258.097 187.204 254.467 187.208 250.837 187.219C245.768 187.231 240.7 187.213 235.632 187.187C233.369 187.201 233.369 187.201 231.06 187.216C229.681 187.202 228.302 187.189 226.881 187.176C225.084 187.173 225.084 187.173 223.25 187.17C219.272 186.419 217.883 185.074 215.443 181.893C214.858 177.986 214.858 177.986 215.443 174.08C218.91 169.56 221.279 168.806 226.881 168.797Z" fill="#FEFEFE"/>
<path d="M193.687 131.45C195.014 131.454 196.341 131.458 197.708 131.462C199.104 131.454 200.501 131.446 201.939 131.438C206.57 131.416 211.201 131.418 215.832 131.421C219.041 131.415 222.249 131.409 225.457 131.401C232.187 131.389 238.917 131.39 245.647 131.398C254.289 131.407 262.93 131.381 271.572 131.344C278.199 131.321 284.825 131.32 291.452 131.325C294.639 131.324 297.826 131.316 301.013 131.3C305.461 131.281 309.909 131.291 314.357 131.31C315.684 131.298 317.011 131.286 318.378 131.273C322.04 131.307 322.04 131.307 327.847 131.891C330.969 136.579 330.969 136.579 330.579 142.243C330 144.853 330 144.853 329.408 147.517C324.318 150.064 318.703 149.323 313.108 149.331C311.063 149.343 311.063 149.343 308.976 149.354C304.454 149.377 299.932 149.388 295.41 149.396C292.275 149.405 289.141 149.414 286.006 149.423C279.43 149.44 272.853 149.449 266.277 149.454C257.838 149.463 249.4 149.501 240.962 149.545C234.486 149.574 228.011 149.582 221.536 149.585C218.424 149.589 215.312 149.602 212.201 149.622C207.853 149.649 203.507 149.646 199.16 149.636C197.222 149.658 197.222 149.658 195.244 149.68C186.47 149.615 186.47 149.615 183.101 146.999C180.055 143.038 180.582 139.852 181.096 135.016C185.189 130.92 188.113 131.502 193.687 131.45Z" fill="#FEFEFE"/>
<path d="M140.506 183.461C152.355 183.461 164.205 183.461 176.413 183.461C176.413 192.227 176.413 200.992 176.413 210.024C164.564 210.024 152.714 210.024 140.506 210.024C140.506 201.258 140.506 192.492 140.506 183.461Z" fill="#374581"/>
<path d="M142.068 263.148C153.403 263.148 164.737 263.148 176.414 263.148C176.414 271.399 176.414 279.649 176.414 288.149C165.08 288.149 153.746 288.149 142.068 288.149C142.068 279.899 142.068 271.649 142.068 263.148Z" fill="#2E3D7C"/>
</svg>
