<svg width="768" height="768" viewBox="0 0 768 768" fill="none" xmlns="http://www.w3.org/2000/svg">
<path d="M152.5 65C200.273 65 239 103.727 239 151.5V602.5C239 650.273 200.273 689 152.5 689C104.727 689 66 650.273 66 602.5V151.5C66 103.727 104.727 65 152.5 65Z" fill="white" stroke="#222C44" stroke-width="16"/>
<path d="M195.862 567.483C194.538 559.401 175.622 552.992 152.472 552.992C129.321 552.992 110.405 559.401 109.081 567.483H109V568.389V589.219V590.124V591.03V611.86V634.501H109.081C110.405 642.582 129.323 648.992 152.472 648.992C175.62 648.992 194.538 642.582 195.862 634.501H195.943V611.86V591.03V590.124V589.219V568.389V567.483H195.862Z" fill="#222C44"/>
<path d="M152.472 627.254C128.463 627.254 109 620.36 109 611.858V634.5H109.081C110.405 642.58 129.323 648.99 152.472 648.99C175.62 648.99 194.538 642.58 195.862 634.5H195.943V611.858C195.943 620.36 176.481 627.254 152.472 627.254Z" fill="#222C44"/>
<path d="M109 610.953V611.86C109 611.556 109.033 611.254 109.081 610.953H109Z" fill="#222C44"/>
<path d="M195.862 610.953C195.911 611.254 195.943 611.556 195.943 611.86L195.944 610.953H195.862Z" fill="#222C44"/>
<path d="M152.472 605.519C128.463 605.519 109 598.625 109 590.123V612.764H109.081C110.405 620.845 129.323 627.254 152.472 627.254C175.62 627.254 194.538 620.845 195.862 612.764H195.943V590.123C195.943 598.625 176.481 605.519 152.472 605.519Z" fill="#02569B"/>
<path d="M109 589.219V590.124C109 589.82 109.033 589.518 109.081 589.218L109 589.219Z" fill="#02569B"/>
<path d="M195.862 589.218C195.911 589.518 195.943 589.82 195.943 590.124V589.219L195.862 589.218Z" fill="#02569B"/>
<path d="M152.472 583.785C176.481 583.785 195.943 576.892 195.943 568.389C195.943 559.885 176.481 552.992 152.472 552.992C128.463 552.992 109 559.885 109 568.389C109 576.892 128.463 583.785 152.472 583.785Z" fill="#1AC7E3"/>
<path d="M152.472 583.785C128.463 583.785 109 576.892 109 568.389V591.03L109.081 591.029C110.405 599.11 129.323 605.519 152.472 605.519C175.62 605.519 194.538 599.11 195.862 591.029L195.943 591.03V568.389C195.943 576.892 176.481 583.785 152.472 583.785Z" fill="#0E88D8"/>
<path d="M109 567.483V568.389C109 568.084 109.033 567.783 109.081 567.483H109Z" fill="#0E88D8"/>
<path d="M195.862 567.483C195.911 567.783 195.943 568.084 195.943 568.389V567.483H195.862Z" fill="#0E88D8"/>
<path d="M197.926 160L197.208 161.944C187.658 187.875 179.953 214.45 174.153 241.471L173.914 242.578L172.784 242.613C150.957 243.267 129.388 247.541 108.955 255.261L107 256V168.64L107.003 168.425C107.06 166.213 107.963 164.104 109.529 162.535C111.146 160.915 113.339 160.003 115.626 160H197.926Z" fill="#1AC7E3" stroke="#222C44" stroke-width="8"/>
<path d="M283.882 631.941L283.882 613.395L231.395 613.395L231.395 582.605L283.882 582.606L283.882 564.059L317.823 598L283.882 631.941ZM287.519 623.092L312.611 598L287.519 572.908L287.519 586.242L235.031 586.242L235.031 609.758L287.519 609.759L287.519 623.092Z" fill="#222C44"/>
<path d="M283.882 238.941L283.882 220.395L231.395 220.395L231.395 189.605L283.882 189.606L283.882 171.059L317.823 205L283.882 238.941ZM287.519 230.092L312.611 205L287.519 179.908L287.519 193.242L235.031 193.242L235.031 216.758L287.519 216.759L287.519 230.092Z" fill="#222C44"/>
<path d="M402.5 71C450.273 71 489 109.727 489 157.5V608.5C489 656.273 450.273 695 402.5 695C354.727 695 316 656.273 316 608.5V157.5C316 109.727 354.727 71 402.5 71Z" fill="white" stroke="#222C44" stroke-width="16"/>
<path d="M382.452 337.884C385.507 336.071 389.468 337.149 391.215 340.207L391.219 340.214L391.223 340.22L391.783 341.186V341.187C394.317 345.547 397.919 348.17 401.917 348.17C405.916 348.17 409.505 345.546 412.013 341.185L412.014 341.186L412.562 340.24C414.415 337.133 418.403 336.078 421.445 337.884L421.475 337.901L430.293 342.936H430.294C433.963 345.027 435.223 349.699 433.117 353.375C430.612 357.737 430.144 362.157 432.148 365.613C434.153 369.069 438.225 370.863 443.264 370.863C447.506 370.863 450.96 374.339 451 378.544V387.476C451 391.699 447.523 395.137 443.314 395.137C438.277 395.137 434.203 396.93 432.204 400.39C430.205 403.851 430.692 408.274 433.226 412.635C435.32 416.254 434.067 420.972 430.396 423.064H430.396L421.577 428.099L421.562 428.107L421.548 428.116C418.506 429.922 414.516 428.867 412.663 425.76L412.115 424.814L412.114 424.813C409.581 420.453 405.979 417.83 401.98 417.83C398.104 417.83 394.614 420.296 392.119 424.418L391.885 424.814L391.336 425.76C389.483 428.867 385.494 429.922 382.452 428.116L382.438 428.107L382.423 428.099L373.604 423.064H373.604C369.934 420.973 368.675 416.301 370.78 412.625L370.779 412.624C373.307 408.267 373.794 403.849 371.796 400.39C369.797 396.93 365.723 395.137 360.686 395.137C356.44 395.137 353 391.662 353 387.476V378.524C353 374.301 356.477 370.863 360.686 370.863C365.722 370.863 369.796 369.071 371.795 365.619C373.734 362.271 373.336 358.025 371.003 353.818L370.771 353.411C368.676 349.732 369.944 345.022 373.604 342.936H373.604L382.423 337.901L382.438 337.893L382.452 337.884ZM401.975 364.473C391.75 364.473 383.408 372.788 383.408 383C383.408 393.212 391.75 401.527 401.975 401.527C412.199 401.527 420.541 393.212 420.541 383C420.541 372.788 412.199 364.473 401.975 364.473Z" fill="#1AC7E3" stroke="#222C44" stroke-width="4"/>
<path d="M653.5 72C701.273 72 740 110.727 740 158.5V609.5C740 657.273 701.273 696 653.5 696C605.727 696 567 657.273 567 609.5V158.5C567 110.727 605.727 72 653.5 72Z" fill="white" stroke="#222C44" stroke-width="16"/>
<path d="M686.84 256H622.84C620.73 256 619 254.27 619 252.16V131.84C619 129.728 620.73 128 622.84 128H686.84C688.955 128 690.68 129.728 690.68 131.84V252.165C690.68 254.27 688.955 256 686.84 256Z" fill="#02569B"/>
<path d="M686.838 138.237H622.838V240.629H686.838V138.237Z" fill="#1AC7E3"/>
<path d="M662.456 134.398H647.096C646.391 134.398 645.816 133.821 645.816 133.118C645.816 132.415 646.391 131.838 647.096 131.838H662.456C663.156 131.838 663.736 132.415 663.736 133.118C663.736 133.821 663.156 134.398 662.456 134.398Z" fill="#1AC7E3"/>
<path d="M533.882 238.855L533.882 220.309L481.395 220.309L481.395 189.519L533.882 189.52L533.882 170.973L567.823 204.914L533.882 238.855ZM537.519 230.006L562.611 204.914L537.519 179.822L537.519 193.156L485.031 193.156L485.031 216.672L537.519 216.673L537.519 230.006Z" fill="#222C44"/>
<path d="M600 622.98V558.093C600 556.94 600.985 556 602.187 556H704.985C706.187 556 707.172 556.942 707.172 558.093V622.98H600Z" fill="#1AC7E3"/>
<path d="M707.172 622.977V631.906C707.172 633.136 706.187 634.141 704.985 634.141H602.187C600.985 634.141 600 633.136 600 631.909V622.977H707.172Z" fill="#222C44"/>
<path d="M637.957 649.779H669.214L666.984 634.148H640.189L637.957 649.779Z" fill="#222C44"/>
<path d="M666.981 634.148H640.187L638.797 643.891L667.502 637.794L666.981 634.148Z" fill="#02569B"/>
<path d="M677.032 649.766H630.145V651.997H677.032V649.766Z" fill="#02569B"/>
<path d="M637.383 650.266L637.381 650.279H669.791L669.789 650.266H676.532V651.497H630.645V650.266H637.383ZM668.637 649.266H638.535L639.243 644.307L667.084 638.393L668.637 649.266ZM666.548 634.648L666.94 637.401L639.394 643.253L640.623 634.648H666.548ZM706.672 623.48V631.905C706.672 632.869 705.9 633.641 704.984 633.641H602.188C601.271 633.641 600.5 632.869 600.5 631.909V623.48H706.672ZM602.188 556.5H704.984C705.931 556.5 706.672 557.239 706.672 558.093V622.477H600.5V558.093C600.5 557.237 601.24 556.5 602.188 556.5Z" stroke="#222C44"/>
<path d="M533.882 634.941L533.882 616.395L481.395 616.395L481.395 585.605L533.882 585.606L533.882 567.059L567.823 601L533.882 634.941ZM537.519 626.092L562.611 601L537.519 575.908L537.519 589.242L485.031 589.242L485.031 612.758L537.519 612.759L537.519 626.092Z" fill="#222C44"/>
</svg>
