<svg width="512" height="512" viewBox="0 0 512 512" fill="none" xmlns="http://www.w3.org/2000/svg">
<g clip-path="url(#clip0_659_827)">
<path d="M231.708 95.0106C242.482 98.8446 249.04 106.558 256.958 114.557C258.631 116.148 260.304 117.739 262.028 119.377C273.607 130.932 273.607 130.932 274.828 139.507C269.376 149.579 261.533 156.802 253.278 164.637C251.58 166.289 249.883 167.941 248.133 169.642C243.95 173.705 239.746 177.742 235.518 181.757C237.218 184.17 238.917 186.582 240.668 189.067C245.758 197.117 245.758 197.117 245.278 203.037C243.198 207.357 243.198 207.357 240.638 209.917C235.893 210.141 231.139 210.191 226.388 210.167C223.796 210.161 221.204 210.155 218.533 210.148C215.215 210.125 211.897 210.101 208.478 210.077C197.971 210.025 187.464 209.972 176.638 209.917C176.638 240.33 176.638 270.743 176.638 302.077C197.47 301.875 197.47 301.875 218.302 301.616C220.888 301.603 223.474 301.591 226.138 301.577C228.793 301.551 231.447 301.524 234.182 301.496C240.638 302.077 240.638 302.077 245.758 307.197C244.97 317.18 241.606 322.526 235.518 330.237C236.695 331.334 237.872 332.43 239.084 333.559C244.389 338.545 249.633 343.589 254.878 348.637C256.731 350.362 258.584 352.086 260.493 353.862C262.234 355.554 263.975 357.245 265.768 358.987C267.39 360.529 269.013 362.071 270.684 363.659C273.918 368.637 273.918 368.637 273.625 375.067C269.791 385.842 262.078 392.399 254.078 400.317C252.488 401.991 250.897 403.664 249.258 405.387C237.704 416.966 237.704 416.966 229.128 418.187C219.057 412.735 211.833 404.892 203.998 396.637C202.347 394.94 200.695 393.242 198.993 391.492C194.931 387.31 190.894 383.105 186.878 378.877C184.911 380.577 182.945 382.276 180.918 384.027C174.078 389.117 174.078 389.117 167.038 388.637C161.278 386.557 161.278 386.557 158.718 383.997C158.533 379.254 158.504 374.504 158.558 369.757C158.581 367.167 158.604 364.576 158.628 361.907C158.658 359.904 158.688 357.901 158.718 355.837C156.864 356.547 155.009 357.256 153.098 357.987C149.386 359.378 149.386 359.378 145.598 360.797C143.163 361.718 140.727 362.639 138.218 363.587C103.927 374.734 54.4885 373.886 22.0482 357.957C12.5921 352.457 5.81995 347.328 -0.00176334 337.917C-1.01145 330.569 -1.01145 330.569 -1.07676 321.959C-1.1175 318.729 -1.15823 315.499 -1.2002 312.171C-1.20345 308.653 -1.2039 305.135 -1.20176 301.617C-1.21995 297.996 -1.23966 294.374 -1.26083 290.752C-1.29523 283.164 -1.29927 275.577 -1.28426 267.989C-1.26918 258.289 -1.34742 248.593 -1.45096 238.895C-1.51732 231.414 -1.52456 223.934 -1.51524 216.454C-1.51956 212.879 -1.54416 209.305 -1.58985 205.731C-1.94714 174.32 -1.94714 174.32 6.15074 164.309C12.0005 159.388 16.6422 155.824 23.6782 152.957C26.3116 151.829 26.3116 151.829 28.9982 150.677C48.686 144.345 67.1882 142.445 87.8382 142.557C90.4281 142.564 93.018 142.571 95.6864 142.579C118.307 142.895 138.451 145.441 158.718 156.157C158.689 154.184 158.659 152.211 158.628 150.177C158.605 147.61 158.582 145.043 158.558 142.397C158.529 139.843 158.499 137.289 158.468 134.657C158.718 127.997 158.718 127.997 161.278 122.877C170.432 121.831 173.39 122.359 180.928 128.037C182.892 129.714 184.855 131.39 186.878 133.117C188.523 131.352 188.523 131.352 190.2 129.552C195.186 124.247 200.23 119.003 205.278 113.757C207.002 111.905 208.727 110.052 210.503 108.142C212.194 106.402 213.886 104.661 215.628 102.867C217.17 101.245 218.712 99.6231 220.3 97.9518C225.278 94.7175 225.278 94.7175 231.708 95.0106ZM227.838 117.757C226.742 118.921 225.646 120.084 224.516 121.282C219.524 126.541 214.482 131.749 209.438 136.957C206.852 139.705 206.852 139.705 204.213 142.507C202.522 144.24 200.831 145.972 199.088 147.757C196.776 150.171 196.776 150.171 194.416 152.632C189.438 156.157 189.438 156.157 176.638 156.157C176.638 167.985 176.638 179.812 176.638 191.997C188.465 191.997 200.293 191.997 212.478 191.997C212.478 186.929 212.478 181.86 212.478 176.637C216.003 171.369 216.003 171.369 220.878 166.737C222.611 165.054 224.343 163.371 226.128 161.637C227.96 159.935 229.791 158.232 231.678 156.477C233.51 154.715 235.341 152.953 237.228 151.137C241.746 146.801 246.295 142.504 250.878 138.237C248.498 135.288 246.094 132.358 243.678 129.437C242.342 127.804 241.005 126.17 239.628 124.487C235.497 119.665 235.497 119.665 227.838 117.757ZM17.9182 179.197C18.4665 186.873 20.427 189.389 26.0782 194.717C56.6467 213.264 96.8419 209.306 129.978 202.107C145.847 197.555 145.847 197.555 157.118 186.397C157.646 184.866 158.174 183.335 158.718 181.757C134.501 159.811 103.011 159.832 71.9582 160.917C51.9819 162.249 34.5308 168.248 17.9182 179.197ZM135.818 217.667C97.2609 229.945 55.9511 222.548 17.9182 212.477C17.7928 216.19 17.7029 219.904 17.6282 223.617C17.5744 225.685 17.5206 227.753 17.4651 229.884C17.449 236.039 17.449 236.039 22.5582 241.597C43.5906 252.32 65.1708 254.679 88.4782 254.397C90.945 254.427 93.4117 254.457 95.9532 254.487C116.56 254.404 133.791 249.881 152.638 241.757C159.88 234.325 159.622 232.118 159.678 222.077C159.432 218.019 159.135 213.962 158.718 209.917C151.231 209.917 142.728 214.997 135.818 217.667ZM17.9182 258.557C17.0215 267.26 16.6743 275.477 17.9182 284.157C23.6274 290.175 25.8746 291.648 33.2782 294.397C35.0899 295.153 36.9016 295.909 38.7682 296.687C70.0668 307.482 112.624 306.502 143.358 294.397C152.754 289.709 152.754 289.709 158.718 281.597C158.896 277.654 158.935 273.704 158.878 269.757C158.855 267.665 158.832 265.573 158.808 263.417C158.779 261.814 158.749 260.21 158.718 258.557C156.553 259.267 154.389 259.976 152.158 260.707C121.026 270.649 121.026 270.649 104.958 271.357C102.582 271.489 100.206 271.621 97.7582 271.757C71.1651 272.54 42.4659 269.415 17.9182 258.557ZM17.9182 307.197C17.9182 315.645 17.9182 324.093 17.9182 332.797C47.9967 352.622 84.3047 354.639 119.148 349.337C134.449 345.878 147.421 341.535 158.718 330.237C158.902 326.348 158.933 322.451 158.878 318.557C158.855 316.442 158.832 314.327 158.808 312.147C158.779 310.514 158.749 308.88 158.718 307.197C157.019 307.722 155.319 308.247 153.568 308.787C151.308 309.477 149.047 310.167 146.718 310.877C144.491 311.561 142.263 312.244 139.968 312.947C123.004 317.727 106.976 317.995 89.4382 318.077C86.7009 318.13 83.9635 318.183 81.1432 318.237C58.8101 318.345 39.0448 314.24 17.9182 307.197ZM176.638 319.997C176.638 331.825 176.638 343.652 176.638 355.837C180.862 355.837 185.086 355.837 189.438 355.837C194.416 359.362 194.416 359.362 199.088 364.237C200.779 365.97 202.471 367.702 204.213 369.487C205.937 371.319 207.662 373.15 209.438 375.037C211.212 376.869 212.986 378.7 214.813 380.587C219.185 385.11 223.524 389.66 227.838 394.237C230.855 391.929 233.835 389.573 236.798 387.197C238.461 385.891 240.125 384.584 241.838 383.237C246.899 378.586 246.899 378.586 245.758 368.637C242.752 364.472 242.752 364.472 238.478 360.897C236.977 359.498 235.475 358.099 233.928 356.657C230.731 353.773 227.525 350.9 224.308 348.037C222.807 346.632 221.305 345.226 219.758 343.777C218.364 342.529 216.97 341.28 215.533 339.994C212.478 335.357 212.478 335.357 212.478 319.997C200.651 319.997 188.824 319.997 176.638 319.997Z" fill="#1AC7E3"/>
<path d="M368.642 0.00156249C378.828 -0.0723443 389.015 -0.118128 399.202 -0.158438C402.111 -0.179888 405.02 -0.201337 408.017 -0.223437C410.781 -0.231687 413.544 -0.239938 416.392 -0.248438C420.233 -0.268547 420.233 -0.268547 424.151 -0.289062C430.082 0.00156249 430.082 0.00156249 432.642 2.56156C433.238 6.86707 433.698 11.1919 434.082 15.5216C434.296 17.8745 434.511 20.2274 434.732 22.6516C434.887 24.4699 435.042 26.2882 435.202 28.1616C437.472 26.0496 439.743 23.9376 442.082 21.7616C446.892 17.2867 449.97 15.5024 456.402 13.9716C467.381 16.1643 473.194 23.3396 480.802 31.2016C482.331 32.6816 483.861 34.1617 485.437 35.6866C496.236 46.6091 496.236 46.6091 498.032 55.6016C495.759 65.1526 490.463 69.6833 483.842 76.8016C486.569 77.0342 486.569 77.0342 489.352 77.2716C491.705 77.4861 494.058 77.7006 496.482 77.9216C500.001 78.2334 500.001 78.2334 503.592 78.5516C509.442 79.3616 509.442 79.3616 512.002 81.9216C512.225 86.4802 512.276 91.0475 512.252 95.6116C512.239 99.7572 512.239 99.7572 512.227 103.987C512.195 108.35 512.195 108.35 512.162 112.802C512.15 115.72 512.139 118.639 512.127 121.647C512.096 128.885 512.054 136.123 512.002 143.362C506.123 146.301 501.565 146.709 495.042 147.362C492.95 147.576 490.857 147.791 488.702 148.012C487.098 148.167 485.494 148.322 483.842 148.482C485.954 150.33 488.066 152.178 490.242 154.082C496.642 161.282 496.642 161.282 498.112 166.952C495.728 178.512 487.77 184.902 479.522 192.962C477.92 194.635 476.317 196.308 474.667 198.032C462.768 209.869 462.768 209.869 453.762 210.112C445.24 206.043 439.633 200.903 432.642 194.562C432.671 196.565 432.701 198.568 432.732 200.632C432.755 203.222 432.778 205.813 432.802 208.482C432.831 211.065 432.861 213.649 432.892 216.312C432.642 222.722 432.642 222.722 430.082 225.282C420.339 225.927 410.564 225.756 400.802 225.762C398.048 225.793 395.294 225.824 392.457 225.857C389.828 225.862 387.2 225.866 384.492 225.872C380.856 225.887 380.856 225.887 377.147 225.903C371.202 225.282 371.202 225.282 366.082 220.162C365.582 214.062 365.582 214.062 365.762 207.042C365.808 204.712 365.854 202.382 365.902 199.982C365.961 198.193 366.021 196.404 366.082 194.562C364.937 195.7 363.792 196.839 362.612 198.012C361.064 199.46 359.516 200.909 357.922 202.402C356.407 203.857 354.892 205.312 353.332 206.812C348.162 209.922 348.162 209.922 342.152 210.032C332.606 206.278 326.378 199.864 319.362 192.642C317.976 191.295 316.59 189.949 315.162 188.562C309.345 182.687 305.012 177.584 301.972 169.852C302.114 162.068 304.269 159.632 309.602 154.082C311.05 152.534 312.499 150.986 313.992 149.392C315.13 148.246 316.269 147.101 317.442 145.922C315.653 145.981 313.865 146.04 312.022 146.102C309.692 146.148 307.362 146.194 304.962 146.242C302.645 146.301 300.329 146.36 297.942 146.422C291.842 145.922 291.842 145.922 286.722 140.802C286.1 134.856 286.1 134.856 286.132 127.512C286.137 124.883 286.142 122.255 286.147 119.547C286.178 116.793 286.209 114.039 286.242 111.202C286.243 108.438 286.245 105.674 286.247 102.827C286.363 82.2803 286.363 82.2803 289.282 79.3616C294.025 79.1766 298.775 79.147 303.522 79.2016C306.112 79.2247 308.703 79.2478 311.372 79.2716C314.376 79.3161 314.376 79.3161 317.442 79.3616C315.734 77.3222 315.734 77.3222 313.992 75.2416C311.819 72.529 311.819 72.529 309.602 69.7616C308.146 67.9796 306.691 66.1976 305.192 64.3616C302.082 58.8816 302.082 58.8816 302.725 53.9366C306.16 44.4465 313.604 38.3687 320.642 31.3616C322.11 29.8205 323.579 28.2794 325.092 26.6916C335.987 15.7469 335.987 15.7469 344.952 13.9616C353.647 16.0713 357.765 21.5825 363.522 28.1616C363.754 25.7559 363.754 25.7559 363.992 23.3016C364.206 21.2094 364.421 19.1172 364.642 16.9616C364.85 14.8826 365.058 12.8036 365.272 10.6616C366.082 5.12156 366.082 5.12156 368.642 0.00156249ZM384.002 17.9216C384.002 26.3696 384.002 34.8176 384.002 43.5216C364.499 50.0226 364.499 50.0226 353.282 46.0816C347.362 42.0816 347.362 42.0816 343.042 38.4016C337.973 43.4704 332.904 48.5392 327.682 53.7616C330.805 60.6494 330.805 60.6494 335.362 66.5616C335.823 76.7157 334.826 84.5993 332.802 94.7216C323.509 95.5664 314.216 96.4112 304.642 97.2816C304.642 107.419 304.642 117.557 304.642 128.002C313.09 128.846 321.538 129.691 330.242 130.562C334.316 139.473 336.833 146.355 335.362 156.162C330.242 163.362 330.242 163.362 325.122 168.962C331.035 174.875 336.949 180.789 343.042 186.882C344.731 185.139 346.421 183.397 348.162 181.602C358.95 174.634 363.96 176.567 376.322 179.202C378.011 180.046 379.701 180.891 381.442 181.762C382.981 190.254 383.347 198.744 384.002 207.362C394.139 207.362 404.277 207.362 414.722 207.362C415.567 198.914 416.411 190.466 417.282 181.762C427.041 177.169 434.657 175.469 445.442 176.642C450.242 180.482 450.242 180.482 453.122 184.322C462.838 180.505 467.484 174.704 473.602 166.402C471.859 165.029 470.117 163.656 468.322 162.242C463.362 156.162 463.362 156.162 463.842 148.642C464.528 146.054 465.215 143.467 465.922 140.802C466.397 138.373 466.872 135.944 467.362 133.442C467.731 131.646 468.101 129.851 468.482 128.002C476.93 128.002 485.378 128.002 494.082 128.002C494.082 117.864 494.082 107.726 494.082 97.2816C488.617 97.1232 488.617 97.1232 483.042 96.9616C476.692 96.2616 476.692 96.2616 471.042 94.7216C464.974 86.8688 463.222 82.3743 463.682 72.4816C466.056 66.2074 468.472 63.1191 473.602 58.8816C469.909 50.2648 465.07 44.7748 458.242 38.4016C451.924 41.35 447.879 43.644 442.882 48.6416C433.402 47.8173 425.23 46.2936 417.282 40.9616C415.114 33.2635 415.181 25.9654 414.722 17.9216C404.584 17.9216 394.447 17.9216 384.002 17.9216Z" fill="#1AC7E3"/>
<path d="M376.869 237.461C379.169 237.471 381.469 237.482 383.839 237.493C386.341 237.498 388.842 237.503 391.419 237.508C394.039 237.539 396.66 237.571 399.359 237.603C401.979 237.604 404.6 237.606 407.299 237.608C426.801 237.724 426.801 237.724 432.639 240.643C432.639 260.918 432.639 281.193 432.639 302.083C439.398 302.083 446.156 302.083 453.119 302.083C455.654 308.419 455.654 308.419 458.239 314.883C443.09 333.02 426.415 349.516 409.599 366.083C412.229 366.799 414.859 367.515 417.569 368.253C456.379 379.274 489.112 398.312 511.999 432.643C513.576 442.975 512.756 446.91 506.739 455.593C504.38 458.174 501.971 460.709 499.519 463.203C498.24 464.54 496.961 465.876 495.644 467.253C469.74 493.648 437.183 511.943 399.733 512.752C353.1 513.104 322.28 498.672 287.859 467.363C279.642 458.752 272.546 450.854 269.949 439.013C271.982 429.83 277.325 424.335 283.679 417.763C284.955 416.421 286.231 415.079 287.546 413.697C316.727 383.773 348.525 371.1 389.119 363.523C387.71 362.194 386.301 360.865 384.849 359.496C378.499 353.465 372.209 347.376 365.919 341.283C363.7 339.192 361.481 337.102 359.194 334.948C357.107 332.91 355.02 330.872 352.869 328.773C350.925 326.909 348.981 325.046 346.979 323.126C343.039 317.443 343.039 317.443 343.545 310.495C345.599 304.643 345.599 304.643 348.159 302.083C354.132 301.978 360.107 301.974 366.079 302.083C366.039 299.448 366.039 299.448 365.998 296.759C365.892 288.827 365.825 280.895 365.759 272.963C365.716 270.197 365.673 267.432 365.629 264.583C365.604 260.623 365.604 260.623 365.579 256.583C365.539 252.923 365.539 252.923 365.498 249.189C366.296 240.973 368.606 238.367 376.869 237.461ZM383.999 256.003C383.999 277.123 383.999 298.243 383.999 320.003C380.62 320.848 377.241 321.692 373.759 322.563C381.362 330.166 388.966 337.769 396.799 345.603C405.743 341.131 409.956 338.143 416.639 331.203C418.21 329.586 419.781 327.969 421.399 326.303C422.574 325.069 423.749 323.834 424.959 322.563C422.425 320.873 419.89 319.184 417.279 317.443C416.172 311.222 416.172 311.222 415.969 303.503C415.833 299.37 415.833 299.37 415.694 295.153C415.636 292.265 415.579 289.378 415.519 286.403C415.388 282.042 415.388 282.042 415.254 277.593C415.043 270.397 414.877 263.2 414.719 256.003C404.582 256.003 394.444 256.003 383.999 256.003ZM313.599 416.323C306.214 423.339 299.025 430.544 291.839 437.763C303.491 463.979 330.898 479.091 356.159 489.923C384.44 499.443 416.165 496.724 442.879 483.843C461.769 473.072 476.712 458.655 491.519 442.883C479.523 417.872 456.657 401.44 431.269 391.133C387.899 377.318 347.521 386.176 313.599 416.323Z" fill="#1AC7E3"/>
<path d="M437.759 56.3237C454.411 67.6295 461.156 83.2913 465.919 102.404C468.208 121.368 462.131 138.522 451.679 154.244C440.343 168.136 426.77 175.342 409.039 177.774C387.795 178.543 371.126 175.673 355.179 161.134C338.256 143.149 333.934 127.78 334.409 103.234C336.416 85.2619 343.841 71.6532 357.919 60.3237C384.595 42.6567 409.13 41.9662 437.759 56.3237ZM364.159 81.6037C354.559 94.9378 350.869 106.345 353.279 122.884C358.175 138.771 366.921 148.315 381.439 156.164C395.198 160.75 407.213 160.546 420.319 154.564C432.617 147.761 440.928 138.978 445.439 125.444C447.348 108.566 446.859 95.0121 436.569 81.0537C427.99 71.7758 420.503 67.2961 407.849 65.6937C389.094 65.0575 377.458 67.7008 364.159 81.6037Z" fill="#1AC7E3"/>
<path d="M414.401 403.357C425.619 412.107 431.47 419.901 433.611 433.827C434.289 448.371 432.304 457.235 422.401 468.477C410.823 478.926 402.454 482.106 386.701 481.817C374.585 480.573 366.643 474.832 358.881 465.917C350.486 454.404 348.979 444.035 350.721 430.077C354.114 418.774 359.036 409.86 368.961 403.197C383.347 396.281 400.09 396.263 414.401 403.357ZM376.801 422.717C370.559 430.92 368.641 435.17 368.641 445.437C371.806 452.767 374.609 456.939 380.961 461.757C390.819 464.574 398.71 462.272 407.841 458.077C413.532 451.543 414.464 446.294 415.171 437.767C414.445 429.501 410.346 425.367 404.481 419.837C393.776 414.485 386.212 415.606 376.801 422.717Z" fill="#1AC7E3"/>
<path d="M419.519 82.4006C427.471 89.1827 431.859 94.6949 433.459 105.251C433.986 115.691 433.078 121.97 428.479 131.521C420.357 140.498 413.784 145.527 401.379 146.251C390.533 145.656 385.178 144.288 376.479 137.441C369.105 127.832 365.054 121.406 366.239 109.121C367.96 96.5569 372.328 90.5977 381.439 81.9206C394.208 77.6644 406.997 77.2285 419.519 82.4006ZM389.759 100.161C385.149 107.076 385.695 112.201 386.559 120.321C391.37 126.204 391.37 126.204 399.199 126.241C406.854 126.003 406.854 126.003 411.999 122.561C415.402 117.542 415.402 117.542 414.399 109.921C412.808 101.652 412.808 101.652 404.479 97.2806C394.787 96.3577 394.787 96.3577 389.759 100.161Z" fill="#1AC7E3"/>
<path d="M39.6805 271.039C46.0805 271.359 46.0805 271.359 48.6405 273.919C48.9605 280.319 48.9605 280.319 48.6405 286.719C46.0805 289.279 46.0805 289.279 39.6805 289.599C33.2805 289.279 33.2805 289.279 30.7205 286.719C30.4005 280.319 30.4005 280.319 30.7205 273.919C33.2805 271.359 33.2805 271.359 39.6805 271.039Z" fill="#1AC7E3"/>
<path d="M39.6805 222.398C46.0805 222.718 46.0805 222.718 48.6405 225.278C48.9605 231.678 48.9605 231.678 48.6405 238.078C46.0805 240.638 46.0805 240.638 39.6805 240.958C33.2805 240.638 33.2805 240.638 30.7205 238.078C30.4005 231.678 30.4005 231.678 30.7205 225.278C33.2805 222.718 33.2805 222.718 39.6805 222.398Z" fill="#1AC7E3"/>
<path d="M386.562 430.078C390.851 430.81 395.122 431.66 399.362 432.638C400.34 436.878 401.19 441.149 401.922 445.438C399.362 447.998 399.362 447.998 391.522 448.158C387.8 448.079 387.8 448.079 384.002 447.998C383.893 442.879 383.897 437.757 384.002 432.638C384.847 431.793 385.692 430.949 386.562 430.078Z" fill="#1AC7E3"/>
<path d="M33.2787 320.002C37.544 319.893 41.8134 319.898 46.0787 320.002C48.6387 322.562 48.6387 322.562 48.7987 329.122C48.7459 331.181 48.6931 333.24 48.6387 335.362C42.5587 336.962 42.5587 336.962 35.8387 337.922C34.1491 336.232 32.4595 334.543 30.7188 332.802C31.6787 326.082 31.6787 326.082 33.2787 320.002Z" fill="#1AC7E3"/>
</g>
<defs>
<clipPath id="clip0_659_827">
<rect width="512" height="512" fill="white"/>
</clipPath>
</defs>
</svg>
