<svg width="326" height="301" viewBox="0 0 326 301" fill="none" xmlns="http://www.w3.org/2000/svg">
<path d="M207.776 20.6372C205.89 9.12659 178.951 0 145.981 0C113.011 0 86.0718 9.12659 84.186 20.6372H84.0701V21.927V51.5926V52.8823V54.1721V83.8376V116.083H84.186C86.0718 127.591 113.014 136.72 145.981 136.72C178.948 136.72 205.89 127.591 207.776 116.083H207.892V83.8376V54.1721V52.8823V51.5926V21.927V20.6372H207.776Z" fill="#222C44"/>
<path d="M145.981 105.762C111.788 105.762 84.0701 95.9435 84.0701 83.8353V116.08H84.186C86.0718 127.588 113.014 136.717 145.981 136.717C178.948 136.717 205.89 127.588 207.776 116.08H207.892V83.8353C207.892 95.9435 180.174 105.762 145.981 105.762Z" fill="#222C44"/>
<path d="M84.0701 82.546V83.8376C84.0701 83.404 84.1166 82.9743 84.186 82.546H84.0701Z" fill="#222C44"/>
<path d="M207.776 82.546C207.846 82.9743 207.892 83.404 207.892 83.8376L207.892 82.546H207.776Z" fill="#222C44"/>
<path d="M145.981 74.807C111.788 74.807 84.0701 64.9893 84.0701 52.8805V85.1256H84.186C86.0718 96.633 113.014 105.762 145.981 105.762C178.948 105.762 205.89 96.633 207.776 85.1256H207.892V52.8805C207.892 64.9893 180.174 74.807 145.981 74.807Z" fill="#02569B"/>
<path d="M84.0701 51.5926V52.8823C84.0701 52.4487 84.1166 52.019 84.186 51.5913L84.0701 51.5926Z" fill="#02569B"/>
<path d="M207.776 51.5913C207.846 52.019 207.892 52.4487 207.892 52.8823V51.5926L207.776 51.5913Z" fill="#02569B"/>
<path d="M145.981 43.8535C180.174 43.8535 207.892 34.0369 207.892 21.927C207.892 9.81714 180.174 0 145.981 0C111.788 0 84.0701 9.81714 84.0701 21.927C84.0701 34.0369 111.788 43.8535 145.981 43.8535Z" fill="#1AC7E3"/>
<path d="M145.981 43.8535C111.788 43.8535 84.0701 34.0369 84.0701 21.927V54.1721L84.186 54.1708C86.0718 65.6788 113.014 74.807 145.981 74.807C178.948 74.807 205.89 65.6788 207.776 54.1708L207.892 54.1721V21.927C207.892 34.0369 180.174 43.8535 145.981 43.8535Z" fill="#0E88D8"/>
<path d="M84.0701 20.6372V21.927C84.0701 21.4933 84.1166 21.065 84.186 20.6372H84.0701Z" fill="#0E88D8"/>
<path d="M207.776 20.6372C207.845 21.065 207.892 21.4933 207.892 21.927V20.6372H207.776Z" fill="#0E88D8"/>
<path d="M211.654 270.041V200.81C211.654 199.58 212.705 198.577 213.988 198.577H323.667C324.949 198.577 326 199.582 326 200.81V270.041H211.654Z" fill="#1AC7E3"/>
<path d="M326 270.037V279.564C326 280.876 324.949 281.948 323.667 281.948H213.988C212.705 281.948 211.654 280.876 211.654 279.568V270.037H326Z" fill="#222C44"/>
<path d="M252.152 298.633H285.502L283.122 281.957H254.534L252.152 298.633Z" fill="#222C44"/>
<path d="M283.119 281.957H254.531L253.048 292.352L283.674 285.846L283.119 281.957Z" fill="#02569B"/>
<path d="M293.843 298.619H243.816V301H293.843V298.619Z" fill="#02569B"/>
<path d="M62.2403 158.822L77.485 167.623L102.394 124.48L127.702 139.092L102.793 182.235L118.038 191.036L74.0317 202.828L62.2403 158.822ZM67.7882 166.01L76.5054 198.543L109.038 189.826L98.0782 183.498L122.987 140.355L103.657 129.195L78.7483 172.338L67.7882 166.01Z" fill="#01579B"/>
<path d="M98.5172 231.177C88.6656 231.177 84.6378 224.227 89.5365 215.702C92.367 210.761 90.6795 204.462 85.7265 201.638L76.3101 196.262C72.0103 193.71 66.4585 195.231 63.9 199.52L63.3016 200.552C58.4029 209.077 50.3473 209.077 45.3944 200.552L44.7956 199.52C42.346 195.231 36.7943 193.71 32.4944 196.262L23.078 201.638C18.125 204.462 16.4379 210.815 19.268 215.756C24.221 224.227 20.1932 231.177 10.3415 231.177C4.68086 231.177 0 235.793 0 241.494V251.051C0 256.698 4.62661 261.368 10.3415 261.368C20.1932 261.368 24.221 268.318 19.268 276.844C16.4379 281.785 18.125 288.084 23.078 290.908L32.4944 296.283C36.7943 298.835 42.346 297.315 44.9045 293.025L45.5029 291.993C50.4016 283.468 58.4572 283.468 63.4105 291.993L64.0089 293.025C66.5674 297.315 72.1192 298.835 76.419 296.283L85.8355 290.908C90.7884 288.084 92.4756 281.731 89.6454 276.844C84.6925 268.318 88.7202 261.368 98.5719 261.368C104.233 261.368 108.913 256.753 108.913 251.051V241.494C108.859 235.847 104.233 231.177 98.5172 231.177ZM54.4294 263.92C44.6867 263.92 36.74 255.992 36.74 246.273C36.74 236.553 44.6867 228.625 54.4294 228.625C64.1725 228.625 72.1192 236.553 72.1192 246.273C72.1192 255.992 64.1725 263.92 54.4294 263.92Z" fill="#02569B"/>
<path d="M142.719 207.875C143.403 208.148 143.724 208.47 143.998 208.88C144.006 208.984 144.009 209.087 144.009 209.191C144.009 209.239 144.009 209.239 144.009 209.288C144.009 209.395 144.009 209.501 144.008 209.608C144.008 209.685 144.008 209.761 144.008 209.838C144.008 210.046 144.008 210.254 144.007 210.462C144.006 210.679 144.006 210.897 144.006 211.114C144.006 211.526 144.005 211.937 144.004 212.349C144.003 212.818 144.003 213.286 144.002 213.755C144.001 214.719 144 215.683 143.998 216.647C144.061 216.647 144.124 216.647 144.19 216.647C147.957 216.643 151.725 216.639 155.492 216.637C155.946 216.637 156.401 216.637 156.855 216.637C156.945 216.637 157.035 216.637 157.129 216.637C158.585 216.636 160.042 216.634 161.498 216.633C162.997 216.631 164.495 216.63 165.994 216.63C166.916 216.629 167.838 216.629 168.76 216.627C169.395 216.626 170.031 216.626 170.666 216.626C171.031 216.626 171.395 216.626 171.76 216.625C179.271 216.605 187.079 217.609 193.094 219.936C193.324 220.024 193.558 220.106 193.797 220.188C194.611 220.471 195.349 220.797 196.073 221.135C196.274 221.228 196.48 221.318 196.688 221.407C197.156 221.611 197.595 221.83 198.034 222.049C198.115 222.09 198.196 222.13 198.28 222.171C198.834 222.447 199.333 222.737 199.821 223.043C199.903 223.092 199.986 223.141 200.069 223.19C200.638 223.523 201.151 223.87 201.648 224.231C201.684 224.257 201.72 224.282 201.757 224.309C204.76 226.462 206.757 228.968 207.57 231.561C207.588 231.618 207.606 231.675 207.624 231.733C207.885 232.614 207.982 233.486 207.983 234.377C207.984 234.484 207.984 234.591 207.985 234.698C207.986 234.92 207.986 235.143 207.986 235.365C207.986 235.649 207.989 235.933 207.992 236.216C207.994 236.437 207.994 236.657 207.994 236.877C207.995 236.982 207.995 237.086 207.997 237.191C207.999 237.337 207.998 237.483 207.997 237.63C207.998 237.672 207.999 237.714 208 237.758C207.991 238.253 207.643 238.681 206.947 239.034C206.115 239.399 205.231 239.523 204.133 239.506C203.166 239.455 202.436 239.215 201.777 238.866C201.204 238.502 201.052 238.065 201.049 237.615C200.886 234.25 198.059 231.257 193.248 228.934C192.869 228.755 192.469 228.592 192.055 228.434C191.991 228.408 191.926 228.382 191.86 228.355C191.226 228.1 190.546 227.878 189.862 227.658C189.809 227.64 189.756 227.623 189.7 227.605C186.723 226.648 183.209 226.062 179.694 225.888C179.54 225.88 179.386 225.872 179.232 225.864C178.492 225.825 177.756 225.823 177.013 225.823C176.871 225.823 176.728 225.822 176.585 225.822C176.194 225.822 175.804 225.821 175.413 225.821C174.991 225.821 174.569 225.82 174.147 225.819C173.417 225.818 172.687 225.818 171.957 225.817C170.901 225.816 169.845 225.815 168.789 225.813C167.076 225.811 165.363 225.809 163.65 225.807C161.986 225.805 160.322 225.803 158.659 225.801C158.556 225.801 158.453 225.801 158.348 225.801C157.833 225.8 157.318 225.8 156.803 225.799C152.535 225.794 148.266 225.789 143.998 225.784C143.998 225.824 143.998 225.863 143.998 225.904C144.005 226.863 144.009 227.822 144.012 228.781C144.013 229.245 144.015 229.709 144.018 230.172C144.021 230.577 144.023 230.981 144.024 231.385C144.024 231.599 144.025 231.813 144.027 232.027C144.029 232.229 144.029 232.431 144.029 232.633C144.029 232.706 144.029 232.78 144.03 232.854C144.039 233.517 143.863 234.022 142.901 234.513C142.133 234.844 141.172 234.958 140.172 234.939C138.777 234.856 137.919 234.357 136.984 233.882C136.773 233.776 136.559 233.674 136.329 233.577C135.89 233.392 135.494 233.184 135.09 232.979C134.748 232.807 134.401 232.642 134.03 232.486C133.725 232.351 133.445 232.204 133.161 232.059C132.948 231.951 132.948 231.951 132.715 231.862C132.467 231.762 132.251 231.655 132.029 231.541C131.837 231.444 131.645 231.347 131.452 231.25C131.38 231.213 131.38 231.213 131.305 231.175C131.04 231.042 130.769 230.914 130.483 230.791C130.031 230.595 129.616 230.382 129.197 230.169C128.842 229.989 128.477 229.82 128.095 229.655C127.809 229.529 127.545 229.393 127.278 229.257C126.793 229.011 126.793 229.011 126.279 228.78C125.84 228.594 125.444 228.386 125.04 228.182C124.698 228.01 124.352 227.845 123.981 227.689C123.667 227.55 123.378 227.398 123.085 227.248C122.908 227.153 122.908 227.153 122.71 227.109C122.71 227.079 122.71 227.049 122.71 227.018C122.619 227.003 122.529 226.988 122.436 226.972C122.278 226.898 122.128 226.822 121.979 226.744C121.873 226.69 121.767 226.636 121.66 226.583C121.604 226.554 121.547 226.526 121.489 226.496C121.306 226.405 121.124 226.313 120.941 226.222C120.886 226.194 120.831 226.167 120.774 226.139C120.551 226.031 120.318 225.93 120.08 225.83C119.708 225.662 119.362 225.482 119.01 225.304C118.667 225.132 118.32 224.967 117.949 224.81C117.646 224.676 117.368 224.53 117.084 224.386C116.903 224.296 116.72 224.213 116.526 224.131C116.146 223.969 115.798 223.792 115.446 223.614C114.933 223.354 114.933 223.354 114.39 223.109C112.165 222.16 112.165 222.16 112.02 221.49C111.934 220.929 112.107 220.529 112.826 220.093C113.411 219.768 114.035 219.464 114.7 219.18C114.838 219.12 114.969 219.056 115.098 218.991C115.309 218.886 115.309 218.886 115.538 218.797C115.755 218.708 115.917 218.612 116.092 218.503C116.295 218.388 116.528 218.293 116.762 218.193C116.956 218.108 117.138 218.018 117.319 217.926C117.544 217.812 117.772 217.704 118.016 217.601C118.457 217.412 118.858 217.203 119.261 216.995C119.315 216.968 119.368 216.941 119.423 216.913C119.471 216.888 119.519 216.863 119.568 216.838C119.695 216.784 119.695 216.784 119.878 216.784C119.878 216.754 119.878 216.724 119.878 216.693C120.012 216.626 120.012 216.626 120.197 216.55C120.6 216.379 120.97 216.196 121.339 216.007C121.755 215.795 122.177 215.593 122.626 215.399C122.899 215.279 123.152 215.149 123.407 215.019C123.768 214.834 124.136 214.663 124.537 214.499C124.692 214.424 124.844 214.348 124.994 214.271C125.125 214.204 125.256 214.138 125.388 214.071C125.452 214.039 125.515 214.006 125.581 213.973C125.771 213.882 125.963 213.795 126.163 213.71C126.553 213.54 126.916 213.359 127.278 213.175C127.692 212.963 128.112 212.762 128.561 212.569C128.92 212.409 129.25 212.234 129.584 212.061C129.638 212.034 129.692 212.006 129.747 211.978C129.795 211.953 129.843 211.929 129.892 211.903C130.019 211.85 130.019 211.85 130.202 211.85C130.202 211.819 130.202 211.789 130.202 211.758C130.346 211.687 130.346 211.687 130.539 211.607C130.911 211.449 131.254 211.282 131.589 211.104C131.755 211.027 131.755 211.027 131.938 211.027C131.968 210.982 131.998 210.937 132.029 210.89C132.163 210.824 132.163 210.824 132.337 210.753C132.662 210.616 132.964 210.471 133.262 210.319C133.538 210.179 133.814 210.043 134.113 209.916C134.55 209.731 134.944 209.525 135.341 209.319C135.395 209.292 135.448 209.265 135.503 209.237C135.551 209.212 135.599 209.187 135.648 209.162C135.775 209.108 135.775 209.108 135.958 209.108C135.958 209.078 135.958 209.048 135.958 209.017C136.069 208.962 136.069 208.962 136.238 208.894C136.702 208.698 137.122 208.482 137.544 208.263C139.02 207.512 140.887 207.211 142.719 207.875Z" fill="#0E88D8"/>
<path d="M117.88 253.51C118.643 253.966 118.902 254.353 118.929 254.945C119.041 257.206 120.396 259.473 122.927 261.353C122.969 261.385 123.011 261.416 123.054 261.449C123.925 262.097 124.907 262.685 126.033 263.227C126.49 263.455 126.49 263.455 126.647 263.537C129.071 264.783 132.52 265.68 135.808 266.196C135.911 266.213 136.015 266.23 136.122 266.248C136.823 266.357 137.537 266.428 138.257 266.499C138.4 266.513 138.4 266.513 138.546 266.527C139.875 266.653 141.179 266.712 142.53 266.711C142.676 266.711 142.821 266.712 142.967 266.712C143.363 266.713 143.758 266.713 144.153 266.713C144.582 266.713 145.01 266.714 145.438 266.714C146.178 266.715 146.919 266.716 147.659 266.717C148.729 266.717 149.8 266.718 150.87 266.72C152.607 266.722 154.344 266.723 156.081 266.725C157.767 266.726 159.454 266.728 161.14 266.73C161.244 266.73 161.348 266.73 161.456 266.73C161.978 266.731 162.5 266.731 163.023 266.732C167.35 266.736 171.677 266.741 176.004 266.744C176.003 266.705 176.003 266.666 176.003 266.626C175.997 265.673 175.992 264.721 175.989 263.768C175.988 263.308 175.986 262.847 175.983 262.386C175.98 261.985 175.978 261.583 175.978 261.181C175.977 260.969 175.977 260.756 175.975 260.544C175.973 260.343 175.972 260.143 175.973 259.943C175.973 259.869 175.972 259.796 175.971 259.723C175.961 259.019 176.158 258.499 177.177 257.978C177.883 257.68 178.849 257.573 179.756 257.589C180.978 257.671 181.838 258.054 182.672 258.475C182.925 258.603 183.179 258.73 183.432 258.858C183.498 258.891 183.564 258.925 183.632 258.959C184.007 259.148 184.391 259.327 184.795 259.501C184.999 259.591 185.19 259.686 185.379 259.783C185.604 259.897 185.827 260.007 186.075 260.109C186.329 260.212 186.552 260.324 186.783 260.44C186.874 260.477 186.964 260.513 187.057 260.551C187.291 260.651 187.471 260.751 187.662 260.87C187.8 260.949 187.948 261.014 188.108 261.082C188.514 261.255 188.885 261.442 189.257 261.633C189.517 261.765 189.783 261.891 190.064 262.012C190.517 262.207 190.932 262.421 191.351 262.634C191.647 262.784 191.946 262.929 192.265 263.067C192.715 263.261 193.127 263.473 193.544 263.685C193.901 263.866 194.269 264.037 194.654 264.203C194.889 264.307 195.106 264.416 195.325 264.529C195.604 264.67 195.884 264.808 196.187 264.937C196.564 265.097 196.908 265.273 197.256 265.449C197.588 265.617 197.932 265.77 198.294 265.922C198.447 265.997 198.6 266.074 198.751 266.15C199.593 266.579 199.593 266.579 200.484 266.982C200.769 267.109 201.034 267.246 201.302 267.381C201.598 267.531 201.905 267.67 202.225 267.806C202.575 267.962 202.899 268.131 203.227 268.297C203.542 268.457 203.865 268.61 204.198 268.76C204.665 268.972 205.111 269.193 205.555 269.417C205.752 269.514 205.952 269.606 206.162 269.697C207.098 270.101 207.894 270.515 207.998 271.164C208.032 271.724 207.712 272.142 206.968 272.56C206.764 272.666 206.555 272.769 206.345 272.872C206.275 272.906 206.205 272.941 206.133 272.977C205.749 273.166 205.356 273.347 204.948 273.523C204.698 273.633 204.465 273.751 204.232 273.871C203.941 274.018 203.652 274.163 203.336 274.296C202.959 274.456 202.615 274.632 202.268 274.807C201.875 275.006 201.482 275.199 201.055 275.379C200.747 275.517 200.458 275.665 200.167 275.812C199.774 276.011 199.381 276.204 198.953 276.384C198.646 276.522 198.357 276.67 198.066 276.818C197.673 277.016 197.28 277.209 196.852 277.389C196.48 277.556 196.134 277.737 195.782 277.915C195.439 278.087 195.092 278.252 194.721 278.409C194.418 278.543 194.14 278.689 193.857 278.832C193.672 278.924 193.485 279.009 193.287 279.093C192.891 279.262 192.529 279.447 192.166 279.633C191.907 279.764 191.642 279.889 191.363 280.01C190.958 280.185 190.584 280.373 190.209 280.564C189.777 280.784 189.339 280.996 188.872 281.197C188.62 281.308 188.387 281.426 188.154 281.546C187.863 281.693 187.574 281.838 187.257 281.971C186.881 282.131 186.537 282.307 186.19 282.482C185.797 282.681 185.404 282.873 184.976 283.053C184.604 283.221 184.258 283.402 183.905 283.58C183.565 283.751 183.221 283.915 182.85 284.07C182.661 284.155 182.486 284.245 182.311 284.337C181.456 284.78 180.647 285.011 179.407 285.038C178.47 285.03 177.588 284.846 176.917 284.515C176.054 284.006 175.963 283.526 175.973 282.888C175.973 282.811 175.973 282.735 175.972 282.658C175.972 282.451 175.974 282.244 175.976 282.037C175.978 281.821 175.978 281.604 175.978 281.388C175.979 280.978 175.981 280.568 175.984 280.159C175.987 279.692 175.988 279.226 175.99 278.759C175.993 277.8 175.998 276.84 176.004 275.881C175.907 275.881 175.907 275.881 175.809 275.881C171.999 275.884 168.188 275.887 164.378 275.888C163.919 275.888 163.46 275.888 163.001 275.889C162.864 275.889 162.864 275.889 162.724 275.889C161.25 275.889 159.777 275.89 158.303 275.892C156.788 275.893 155.273 275.894 153.758 275.894C152.825 275.894 151.892 275.895 150.959 275.896C150.317 275.897 149.675 275.897 149.033 275.897C148.664 275.897 148.295 275.897 147.926 275.897C140.903 275.911 133.873 274.992 128.026 272.999C127.853 272.94 127.679 272.882 127.503 272.825C125.589 272.204 123.872 271.422 122.259 270.619C122.199 270.589 122.139 270.559 122.077 270.528C121.723 270.351 121.386 270.168 121.058 269.978C120.89 269.881 120.715 269.787 120.54 269.694C118.174 268.381 116.297 266.778 114.892 265.163C114.807 265.066 114.721 264.97 114.634 264.874C113.503 263.593 112.787 262.16 112.393 260.78C112.379 260.733 112.366 260.686 112.352 260.638C112.307 260.465 112.271 260.293 112.239 260.12C112.231 260.08 112.223 260.039 112.215 259.998C112.021 258.951 112.019 257.902 112.017 256.852C112.016 256.601 112.013 256.351 112.009 256.101C112.006 255.906 112.005 255.711 112.005 255.516C112.005 255.424 112.004 255.331 112.002 255.239C111.992 254.73 112 254.315 112.513 253.861C112.565 253.811 112.618 253.761 112.672 253.71C113.193 253.399 113.906 253.153 114.694 253.05C115.957 253 116.889 253.093 117.88 253.51Z" fill="#0E88D8"/>
</svg>
