<svg width="676" height="798" viewBox="0 0 676 798" fill="none" xmlns="http://www.w3.org/2000/svg">
<path d="M575.187 60.1093C538.275 18.0372 471.55 0 386.193 0H138.457C120.994 0 106.154 12.701 103.419 29.9223L0.26778 684.135C-1.7829 697.034 8.20591 708.721 21.2818 708.721H174.223L212.635 465.086L211.444 472.716C214.178 455.494 228.908 442.793 246.35 442.793H319.028C461.804 442.793 573.599 384.801 606.256 217.042C607.226 212.08 608.064 207.251 608.792 202.533C604.668 200.35 604.668 200.35 608.792 202.533C618.516 140.527 608.726 98.3226 575.187 60.1093Z" fill="#27346A"/>
<path d="M271.157 180.196C275.236 178.255 279.778 177.175 284.541 177.175H478.761C501.759 177.175 523.214 178.674 542.817 181.827C548.44 182.731 553.886 183.768 559.178 184.958C564.471 186.127 569.608 187.45 574.592 188.906C577.083 189.633 579.531 190.383 581.934 191.177C591.57 194.396 600.545 198.145 608.792 202.533C618.516 140.505 608.726 98.3226 575.187 60.1093C538.253 18.0372 471.55 0 386.193 0H138.435C120.994 0 106.154 12.701 103.419 29.9223L0.267795 684.113C-1.78289 697.034 8.20593 708.699 21.2597 708.699H174.223L253.913 203.349C255.545 192.985 262.204 184.495 271.157 180.196Z" fill="#27346A"/>
<path d="M606.255 217.04C573.599 384.778 461.803 442.792 319.027 442.792H246.327C228.885 442.792 214.156 455.493 211.443 472.714L163.66 775.642C161.874 786.932 170.606 797.163 182.028 797.163H310.957C326.216 797.163 339.203 786.05 341.585 770.99L342.842 764.419L367.141 610.419L368.707 601.907C371.088 586.847 384.076 575.734 399.335 575.734H418.629C543.522 575.734 641.315 524.996 669.893 378.251C681.822 316.929 675.648 265.728 644.094 229.763C634.524 218.871 622.639 209.874 608.791 202.531C608.041 207.272 607.225 212.079 606.255 217.04Z" fill="#2790C3"/>
<path d="M574.614 188.903C569.631 187.447 564.493 186.124 559.201 184.956C553.909 183.787 548.441 182.751 542.84 181.847C523.215 178.671 501.782 177.172 478.761 177.172H284.564C279.779 177.172 275.236 178.252 271.179 180.215C262.205 184.515 255.568 192.982 253.936 203.368L212.658 465.084L211.467 472.713C214.179 455.492 228.909 442.791 246.35 442.791H319.051C461.827 442.791 573.622 384.798 606.279 217.039C607.249 212.078 608.065 207.271 608.814 202.53C600.546 198.164 591.593 194.393 581.957 191.196C579.554 190.402 577.106 189.63 574.614 188.903Z" fill="#1F264F"/>
</svg>
