<svg width="512" height="512" viewBox="0 0 512 512" fill="none" xmlns="http://www.w3.org/2000/svg">
<rect width="512" height="512" rx="64" fill="#2A5DAB"/>
<path d="M186.216 187.896C175.72 187.896 167.101 185.421 160.36 180.472C153.619 175.437 149.992 168.269 149.48 158.968H176.232C176.488 162.125 177.427 164.429 179.048 165.88C180.669 167.331 182.76 168.056 185.32 168.056C187.624 168.056 189.501 167.501 190.952 166.392C192.488 165.197 193.256 163.576 193.256 161.528C193.256 158.883 192.019 156.835 189.544 155.384C187.069 153.933 183.059 152.312 177.512 150.52C171.624 148.557 166.845 146.68 163.176 144.888C159.592 143.011 156.435 140.323 153.704 136.824C151.059 133.24 149.736 128.589 149.736 122.872C149.736 117.069 151.187 112.12 154.088 108.024C156.989 103.843 161 100.685 166.12 98.552C171.24 96.4187 177.043 95.352 183.528 95.352C194.024 95.352 202.387 97.8267 208.616 102.776C214.931 107.64 218.301 114.509 218.728 123.384H191.464C191.379 120.653 190.525 118.605 188.904 117.24C187.368 115.875 185.363 115.192 182.888 115.192C181.011 115.192 179.475 115.747 178.28 116.856C177.085 117.965 176.488 119.544 176.488 121.592C176.488 123.299 177.128 124.792 178.408 126.072C179.773 127.267 181.437 128.333 183.4 129.272C185.363 130.125 188.264 131.235 192.104 132.6C197.821 134.563 202.515 136.525 206.184 138.488C209.939 140.365 213.139 143.053 215.784 146.552C218.515 149.965 219.88 154.317 219.88 159.608C219.88 164.984 218.515 169.805 215.784 174.072C213.139 178.339 209.256 181.709 204.136 184.184C199.101 186.659 193.128 187.896 186.216 187.896ZM265.591 187.896C255.095 187.896 246.476 185.421 239.735 180.472C232.994 175.437 229.367 168.269 228.855 158.968H255.607C255.863 162.125 256.802 164.429 258.423 165.88C260.044 167.331 262.135 168.056 264.695 168.056C266.999 168.056 268.876 167.501 270.327 166.392C271.863 165.197 272.631 163.576 272.631 161.528C272.631 158.883 271.394 156.835 268.919 155.384C266.444 153.933 262.434 152.312 256.887 150.52C250.999 148.557 246.22 146.68 242.551 144.888C238.967 143.011 235.81 140.323 233.079 136.824C230.434 133.24 229.111 128.589 229.111 122.872C229.111 117.069 230.562 112.12 233.463 108.024C236.364 103.843 240.375 100.685 245.495 98.552C250.615 96.4187 256.418 95.352 262.903 95.352C273.399 95.352 281.762 97.8267 287.991 102.776C294.306 107.64 297.676 114.509 298.103 123.384H270.839C270.754 120.653 269.9 118.605 268.279 117.24C266.743 115.875 264.738 115.192 262.263 115.192C260.386 115.192 258.85 115.747 257.655 116.856C256.46 117.965 255.863 119.544 255.863 121.592C255.863 123.299 256.503 124.792 257.783 126.072C259.148 127.267 260.812 128.333 262.775 129.272C264.738 130.125 267.639 131.235 271.479 132.6C277.196 134.563 281.89 136.525 285.559 138.488C289.314 140.365 292.514 143.053 295.159 146.552C297.89 149.965 299.255 154.317 299.255 159.608C299.255 164.984 297.89 169.805 295.159 174.072C292.514 178.339 288.631 181.709 283.511 184.184C278.476 186.659 272.503 187.896 265.591 187.896ZM336.006 167.8H364.038V187H310.918V96.76H336.006V167.8Z" fill="white"/>
<path d="M90.048 382.344C90.048 377.907 90.9653 373.96 92.8 370.504C94.6773 367.005 97.3227 364.296 100.736 362.376C104.149 360.413 108.075 359.432 112.512 359.432C118.144 359.432 122.88 360.947 126.72 363.976C130.56 366.963 133.035 371.037 134.144 376.2H120.64C119.829 374.493 118.699 373.192 117.248 372.296C115.84 371.4 114.197 370.952 112.32 370.952C109.419 370.952 107.093 371.997 105.344 374.088C103.637 376.136 102.784 378.888 102.784 382.344C102.784 385.843 103.637 388.637 105.344 390.728C107.093 392.776 109.419 393.8 112.32 393.8C114.197 393.8 115.84 393.352 117.248 392.456C118.699 391.56 119.829 390.259 120.64 388.552H134.144C133.035 393.715 130.56 397.811 126.72 400.84C122.88 403.827 118.144 405.32 112.512 405.32C108.075 405.32 104.149 404.36 100.736 402.44C97.3227 400.477 94.6773 397.768 92.8 394.312C90.9653 390.813 90.048 386.824 90.048 382.344ZM161.716 405.448C157.492 405.448 153.609 404.467 150.068 402.504C146.527 400.499 143.711 397.747 141.62 394.248C139.572 390.707 138.548 386.717 138.548 382.28C138.548 377.843 139.572 373.875 141.62 370.376C143.711 366.835 146.527 364.083 150.068 362.12C153.609 360.157 157.492 359.176 161.716 359.176C165.983 359.176 169.865 360.157 173.364 362.12C176.905 364.083 179.7 366.835 181.748 370.376C183.796 373.875 184.82 377.843 184.82 382.28C184.82 386.717 183.796 390.707 181.748 394.248C179.7 397.747 176.905 400.499 173.364 402.504C169.823 404.467 165.94 405.448 161.716 405.448ZM161.716 393.8C164.916 393.8 167.433 392.755 169.268 390.664C171.145 388.573 172.084 385.779 172.084 382.28C172.084 378.696 171.145 375.88 169.268 373.832C167.433 371.741 164.916 370.696 161.716 370.696C158.473 370.696 155.935 371.741 154.1 373.832C152.265 375.88 151.348 378.696 151.348 382.28C151.348 385.821 152.265 388.637 154.1 390.728C155.935 392.776 158.473 393.8 161.716 393.8ZM243.131 359.88V405H230.587V380.104L222.075 405H211.579L203.003 379.912V405H190.459V359.88H205.627L216.955 389.192L228.027 359.88H243.131ZM302.944 359.88V405H290.4V380.104L281.888 405H271.392L262.816 379.912V405H250.272V359.88H265.44L276.768 389.192L287.84 359.88H302.944ZM322.628 369.928V377.288H337.028V386.824H322.628V394.952H338.948V405H310.084V359.88H338.948V369.928H322.628ZM367.995 405L359.035 388.36H357.691V405H345.147V359.88H364.923C368.549 359.88 371.621 360.52 374.139 361.8C376.656 363.037 378.555 364.765 379.835 366.984C381.115 369.16 381.755 371.613 381.755 374.344C381.755 377.416 380.901 380.125 379.194 382.472C377.531 384.776 375.077 386.419 371.835 387.4L382.011 405H367.995ZM357.691 379.784H363.899C365.605 379.784 366.885 379.379 367.739 378.568C368.592 377.757 369.019 376.584 369.019 375.048C369.019 373.597 368.571 372.467 367.675 371.656C366.821 370.803 365.563 370.376 363.899 370.376H357.691V379.784ZM401.155 394.824H419.907V405H387.075V395.464L405.635 369.992H387.075V359.88H419.907V369.416L401.155 394.824Z" fill="white"/>
<path d="M268.296 250.608V261.04H239.304V250.608H268.296Z" fill="white"/>
</svg>
