<svg width="800" height="519" viewBox="0 0 800 519" fill="none" xmlns="http://www.w3.org/2000/svg">
<path d="M520.992 241.799C523.159 258.159 523.654 274.618 520.297 290.864C518.187 301.048 512.167 303.867 501.955 300.127C501.955 297.365 501.955 294.462 501.955 291.558C501.955 274.958 502.04 258.357 501.884 241.799C501.855 238.895 502.847 237.408 505.425 236.615C506.898 236.147 508.3 235.524 509.759 235.099C516.034 233.244 520.127 235.326 520.992 241.799ZM631.006 230.694C629.703 232.21 628.598 234.292 628.343 236.246C627.465 243.088 626.983 250 626.346 257.181C633.314 257.181 639.377 257.181 646.87 257.181C645.991 248.994 645.737 241.048 644.136 233.385C642.847 227.139 635.184 225.836 631.006 230.694ZM800 20.5949V497.861C800 509.235 790.793 518.456 779.405 518.456H20.5949C9.2068 518.456 0 509.221 0 497.847V20.5949C0 9.22096 9.2068 0 20.5949 0H779.405C790.793 0 800 9.23512 800 20.5949ZM184.575 260.128C180.127 256.884 174.929 254.603 170.014 252.025C166.204 249.986 161.983 248.555 158.612 245.963C156.785 244.561 155.326 241.133 155.666 238.924C155.963 237.054 158.881 234.802 161.034 234.235C164.009 233.428 167.436 233.654 170.552 234.108C178.244 235.269 185.878 236.799 193.81 238.244C193.81 228.895 193.697 219.419 193.881 209.943C193.938 207.21 192.96 206.062 190.467 205.255C174.887 200.241 159.037 198.839 143.003 202.096C127.946 205.17 116.459 212.89 112.068 228.569C111.133 231.87 110.68 235.326 110 238.697C110 241.218 110 243.711 110 246.232C110.269 247.153 110.637 248.074 110.765 249.008C112.082 259.122 116.884 267.252 125.127 273.06C129.306 276.02 134.051 278.159 138.584 280.609C142.493 282.72 146.586 284.547 150.34 286.898C153.187 288.683 154.603 291.969 153.074 294.901C151.969 296.983 149.249 299.235 146.983 299.547C142.649 300.212 138.059 299.972 133.697 299.292C126.629 298.215 119.674 296.473 112.309 294.915C112.309 305.51 112.224 315.666 112.45 325.85C112.465 326.87 114.278 328.428 115.524 328.768C129.986 332.847 144.632 334.844 159.745 333.456C183.031 331.331 195.992 319.235 198.414 296.105C199.929 281.955 196.799 269.065 184.575 260.128ZM266.714 287.479C266.714 270.453 266.7 253.428 266.714 236.402C266.714 235.071 266.856 233.739 266.955 232.082C273.187 232.082 279.008 232.082 284.972 232.082C286.997 222.252 288.966 212.734 291.034 202.677C282.734 202.677 274.844 202.677 266.572 202.677C266.572 189.589 266.572 176.983 266.572 164.023C254.065 167.025 242.068 170.057 229.986 172.762C226.983 173.428 226.034 174.943 225.538 177.748C224.051 186.077 222.266 194.348 220.524 202.946C214.759 202.946 209.377 202.946 204.008 202.946C204.008 212.89 204.008 222.436 204.008 232.266C209.618 232.266 214.887 232.266 220.581 232.266C220.581 234.093 220.581 235.567 220.581 237.068C220.581 257.861 220.439 278.669 220.652 299.462C220.836 317.167 228.697 328.867 242.96 332.323C259.108 336.232 274.972 332.861 290.807 329.943C290.807 318.839 290.807 308.258 290.807 297.252C285.354 297.861 280.397 298.626 275.397 298.909C269.646 299.249 267.535 297.309 266.856 291.615C266.7 290.283 266.714 288.867 266.714 287.479ZM379.207 206.459C379.249 203.456 378.074 202.394 375.368 201.686C360.977 197.847 352.45 201.275 343.98 214.703C342.295 211.686 340.524 208.853 339.108 205.836C338.003 203.484 336.516 202.677 333.924 202.72C324.009 202.875 314.108 202.776 304.193 202.805C303.144 202.805 302.096 203.017 301.161 203.116C301.161 246.105 301.161 288.725 301.161 331.36C316.516 331.36 331.53 331.36 346.955 331.36C346.955 329.618 346.955 328.116 346.955 326.615C346.955 301.629 346.955 276.657 346.955 251.671C346.955 242.252 348.244 240.751 357.805 239.504C360.142 239.207 362.55 239.051 364.887 239.235C369.448 239.646 373.994 240.34 379.108 240.977C379.136 229.32 379.037 217.89 379.207 206.459ZM436.006 202.989C420.694 202.989 405.68 202.989 390.382 202.989C390.382 245.793 390.382 288.414 390.382 331.459C405.737 331.459 420.751 331.459 436.006 331.459C436.006 288.541 436.006 245.807 436.006 202.989ZM436.643 163.924C436.643 151.997 427.663 142.195 416.105 140.878C415.992 140.807 415.878 140.765 415.779 140.708C414.108 140.708 412.422 140.708 410.751 140.708C410.467 140.793 410.198 140.878 409.915 140.992C398.768 142.677 390.227 152.309 390.227 163.924C390.227 170.453 392.932 176.36 397.28 180.581C400.085 183.343 403.669 185.411 407.776 186.445C409.632 186.912 411.53 187.153 413.385 187.125C413.385 187.125 413.414 187.125 413.442 187.125C426.261 187.11 436.643 176.728 436.643 163.924ZM567.734 247.422C566.884 237.663 565.057 228.088 560.708 219.178C556.728 211.048 550.892 204.83 541.983 202.365C528.258 198.584 515.17 199.929 503.258 208.286C502.153 209.065 501.034 209.802 499.363 210.963C495.963 202.011 488.711 202.181 481.275 202.776C480.156 202.875 479.051 202.79 477.932 202.79C470.708 202.79 463.484 202.79 455.822 202.79C455.822 204.759 455.822 206.261 455.822 207.762C455.822 263.031 455.822 318.314 455.822 373.584C455.822 374.986 455.907 376.374 455.992 377.762C471.346 377.762 486.7 377.762 502.068 377.762C502.068 362.45 502.068 347.153 502.068 332.111C508.909 332.776 515.411 333.994 521.884 333.909C544.136 333.697 557.493 323.484 564.093 302.195C564.377 301.275 564.66 300.326 564.901 299.391C569.363 282.252 569.249 264.858 567.734 247.422ZM627.28 282.45C647.649 282.45 668.13 282.45 689.986 282.45C688.966 268.513 688.626 255.227 686.856 242.153C685.312 230.68 680.822 220.085 672.025 211.926C661.317 201.969 648.045 199.929 634.249 200.538C607.295 201.742 591.147 213.768 584.547 237.861C579.178 257.465 579.207 277.38 584.433 297.026C589.448 315.892 601.445 327.96 620.977 331.87C638.385 335.354 655.637 334.561 672.776 330.283C682.635 327.79 682.635 327.805 682.635 317.649C682.635 309.901 682.635 302.11 682.635 294.023C678.371 294.773 674.688 295.482 671.02 296.091C660.156 297.89 649.278 300.184 638.244 298.47C629.844 297.167 626.062 291.501 627.28 282.45Z" fill="#1AC7E3"/>
</svg>
