<svg width="512" height="512" viewBox="0 0 512 512" fill="none" xmlns="http://www.w3.org/2000/svg">
<g clip-path="url(#clip0_667_7579)">
<path d="M490.666 21.3305C490.666 21.3305 351.399 11.5536 298.666 63.9972C298.169 64.7835 213.333 149.331 213.333 149.331L106.666 170.664L42.666 213.331L213.333 298.664L298.666 469.33L341.333 405.331L362.666 298.664C362.666 298.664 447.213 213.827 447.999 213.331C500.443 160.597 490.666 21.3305 490.666 21.3305ZM362.666 170.664C350.879 170.664 341.333 161.117 341.333 149.331C341.333 137.544 350.879 127.997 362.666 127.997C374.453 127.997 383.999 137.544 383.999 149.331C383.999 161.117 374.453 170.664 362.666 170.664ZM149.333 362.664C127.999 341.331 85.3327 341.331 63.9993 362.664C42.666 383.997 42.666 469.33 42.666 469.33C42.666 469.33 127.999 469.33 149.333 447.997C170.666 426.664 170.666 383.997 149.333 362.664Z" stroke="#1AC7E3" stroke-width="66.6667"/>
</g>
<defs>
<clipPath id="clip0_667_7579">
<rect width="512" height="512" fill="white"/>
</clipPath>
</defs>
</svg>
