<svg width="575" height="562" viewBox="0 0 575 562" fill="none" xmlns="http://www.w3.org/2000/svg">
<path d="M82.1204 132.156H46.053M60.8438 185.89H25M264.966 185.89H110.764M89.6981 254.257H53.8586M264.964 254.257H142.531M73.6592 306.587H37.8176M349.847 25.0545H133.949V131.396L264.968 132.156V90.0372L446.894 216.863L264.966 343.438V307.997L133.951 306.589V537H209.58C216.829 536.999 224.007 535.571 230.704 532.797C237.401 530.022 243.485 525.956 248.608 520.831C258.96 510.473 264.773 496.432 264.771 481.793V416.17H350.333C421.22 417.661 487.361 380.656 523.192 319.454C540.789 289.395 550.043 255.188 550 220.362C549.957 185.536 540.618 151.352 522.947 121.336C486.966 60.2284 420.734 23.384 349.847 25.0545Z" stroke="#1AC7E3" stroke-width="49.9998" stroke-linecap="round" stroke-linejoin="round"/>
</svg>
