<svg width="678" height="751" viewBox="0 0 678 751" fill="none" xmlns="http://www.w3.org/2000/svg">
<path d="M343.665 0L499.552 67.5V159.5L646.167 245.288L637.644 408L678 439.5L674.054 609.373L532 691L487.805 672.943L343.563 750.5L199.756 673.001L158.893 692.998L1.81252 603.998L9.53674e-06 435.902L36.2611 401.498L41.5 235.5L191.5 147.5V67.5L343.665 0ZM368.839 436.15L513.601 338.801L600.046 383V259.855L499.552 199.921V288L343.5 368L191.5 288V201.749L84.3447 267.179L84.6047 373.365C104.228 362.036 158.893 334.5 158.893 334.5L314.375 432.585L315.143 592.456L245.494 644.119L343.563 698.759L438.369 643.874L368.85 590.429L368.839 436.15ZM267.127 576.021C267.127 576.021 267.984 511.756 268.038 477.491L181.247 531.8L181.37 625.819L267.127 576.021ZM45.8125 574.998L133.873 626.112L134.412 529.81L46.04 476.792L45.8125 574.998ZM637.644 575.382L636.935 476.571L549.641 536.133L550.361 625.785L637.644 575.382ZM450.85 153.311L365.622 207.319C365.622 207.319 364.869 268.767 364.955 299.508C364.956 300.045 366.098 300.578 367.436 301.01C395.184 286.169 449.369 253.952 449.369 253.952L450.85 153.311ZM317.387 201.749L231.195 152.284V255L317.479 301.73L317.387 201.749ZM501.909 626.011L502.287 529.361L415.861 470V572.057L501.909 626.011ZM524.44 484.547C524.44 484.547 590.547 448.584 612.099 435.774C584.518 419.304 524.44 383 524.44 383L439.871 435.881L524.44 484.547ZM343.665 67.5C343.665 67.5 268.351 104.261 255.559 111.597C282.652 127.286 316.645 143.686 343.665 159.5C349.165 162.719 428.133 111.374 428.133 111.374L343.665 67.5ZM159.664 484.083L243.723 435.861L158.893 387.751L71.4576 435.906L159.664 484.083Z" fill="#1AC7E3"/>
</svg>
