<svg width="463" height="512" viewBox="0 0 463 512" fill="none" xmlns="http://www.w3.org/2000/svg">
<path d="M462.47 77.1507C455.421 34.1199 354.71 0 231.452 0C108.194 0 7.48362 34.1199 0.433973 77.1507H0V81.9726V192.877V197.699V202.521V308.603V313.425V318.247V433.973H0.433973C7.48362 476.994 108.204 511.123 231.452 511.123C354.7 511.123 455.421 476.994 462.47 433.973H462.904V318.247V313.425V308.603V202.521V197.699V192.877V81.9726V77.1507H462.47Z" fill="#424A60"/>
<path d="M231.452 395.394C103.623 395.394 0 358.69 0 313.422V433.97H0.433973C7.48362 476.991 108.204 511.12 231.452 511.12C354.7 511.12 455.421 476.991 462.47 433.97H462.904V313.422C462.904 358.69 359.281 395.394 231.452 395.394Z" fill="#424A60"/>
<path d="M0 308.602V313.423C0 311.803 0.173589 310.202 0.433973 308.602H0Z" fill="#424A60"/>
<path d="M462.471 308.602C462.731 310.202 462.905 311.803 462.905 313.423V308.602H462.471Z" fill="#424A60"/>
<path d="M231.452 279.668C103.623 279.668 0 242.963 0 197.695V318.243H0.433973C7.48362 361.264 108.204 395.394 231.452 395.394C354.7 395.394 455.421 361.264 462.47 318.243H462.904V197.695C462.904 242.963 359.281 279.668 231.452 279.668Z" fill="#556080"/>
<path d="M0 192.875V197.697C0 196.077 0.173589 194.476 0.433973 192.875H0Z" fill="#556080"/>
<path d="M462.471 192.875C462.731 194.476 462.905 196.077 462.905 197.697V192.875H462.471Z" fill="#556080"/>
<path d="M231.452 163.945C359.279 163.945 462.904 127.245 462.904 81.9726C462.904 36.7004 359.279 0 231.452 0C103.625 0 0 36.7004 0 81.9726C0 127.245 103.625 163.945 231.452 163.945Z" fill="#7FABDA"/>
<path d="M231.452 163.941C103.623 163.941 0 127.237 0 81.9688V202.517H0.433973C7.48362 245.538 108.204 279.667 231.452 279.667C354.7 279.667 455.421 245.538 462.47 202.517H462.904V81.9688C462.904 127.237 359.281 163.941 231.452 163.941Z" fill="#7383BF"/>
<path d="M0 77.1484V81.9704C0 80.3502 0.173589 78.7493 0.433973 77.1484H0Z" fill="#7383BF"/>
<path d="M462.471 77.1484C462.731 78.7493 462.905 80.3502 462.905 81.9704V77.1484H462.471Z" fill="#7383BF"/>
</svg>
