<svg width="800" height="800" viewBox="0 0 800 800" fill="none" xmlns="http://www.w3.org/2000/svg">
<path d="M108.262 645.009L113.099 638.235L341.942 204.016L342.426 199.419L241.547 9.93303C233.095 -5.93983 209.302 -1.92662 206.528 15.8418L108.262 645.009Z" fill="#FFC24A"/>
<path d="M415.965 342.749L491.076 265.823L415.943 122.393C408.811 108.816 388.896 108.777 381.84 122.393L341.699 198.948V205.468L415.965 342.749Z" fill="#F4BD62"/>
<path d="M108.262 645.01L110.455 642.806L118.422 639.568L411.248 347.83L414.958 337.731L341.91 198.531L108.262 645.01Z" fill="#F6820C"/>
<path d="M425.346 792.143L690.36 644.342L614.681 178.258C612.314 163.675 594.423 157.91 583.986 168.366L108.262 645.012L371.756 792.129C388.408 801.427 408.689 801.432 425.346 792.143Z" fill="#FDE068"/>
<path d="M687.987 643.099L612.882 180.554C610.533 166.082 595.655 160.093 585.297 170.47L111.201 644.104L371.801 789.765C388.327 798.992 408.454 798.997 424.984 789.778L687.987 643.099Z" fill="#FCCA3F"/>
<path d="M425.346 787.783C408.689 797.072 388.408 797.068 371.756 787.77L110.384 642.766L108.262 645.007L371.756 792.124C388.408 801.422 408.689 801.427 425.346 792.137L690.36 644.337L689.711 640.344L425.346 787.783Z" fill="#EEAB37"/>
</svg>
