<svg width="626" height="701" viewBox="0 0 626 701" fill="none" xmlns="http://www.w3.org/2000/svg">
<path d="M492.75 31.0547H53.525C39.3415 31.0943 25.7501 36.7462 15.7208 46.7755C5.69151 56.8048 0.0395822 70.3961 0 84.5797V568.98C0.0395822 583.163 5.69151 596.754 15.7208 606.784C25.7501 616.813 39.3415 622.465 53.525 622.505H342.825C339.525 478.555 388.7 199.205 492.75 31.0547Z" fill="#0F80CC"/>
<path d="M476.8 46.6797H53.525C43.4774 46.6929 33.845 50.6902 26.7403 57.795C19.6355 64.8997 15.6382 74.532 15.625 84.5797V533.63C124.216 492.674 238.844 470 354.85 466.53C385.532 323.875 426.284 183.574 476.8 46.6797Z" fill="url(#paint0_linear_664_7418)"/>
<path d="M595.198 15.2057C565.198 -11.6193 528.698 -0.84435 492.698 31.0557C487.373 35.8057 482.048 41.0557 476.748 46.6807C409.026 126.775 362.198 222.398 340.448 325.006C347.162 339.653 352.469 354.905 356.298 370.556C357.198 374.056 358.023 377.356 358.798 380.156C360.348 386.781 361.298 391.081 361.298 391.081C361.298 391.081 360.748 389.006 358.473 382.431L356.998 378.181C356.748 377.506 356.423 376.706 356.048 375.831C352.048 366.506 341.048 346.831 336.048 338.331C331.873 350.656 328.173 362.181 325.098 372.606C335.478 394.931 343.101 418.437 347.798 442.606C347.798 442.606 347.048 439.731 343.523 429.731C336.75 415.126 329.241 400.874 321.023 387.031C315.709 400.745 313.457 415.455 314.423 430.131C319.93 441.108 324.069 452.72 326.748 464.706C335.098 496.781 340.898 535.856 340.898 535.856C340.898 535.856 341.098 538.356 341.398 542.431C340.301 569.147 340.843 595.906 343.023 622.556C344.263 648.942 349.177 675.027 357.623 700.056L362.123 697.556C351.649 659.938 347.608 620.82 350.173 581.856C354.879 499.249 371.189 417.716 398.623 339.656C448.873 206.956 518.623 100.456 582.373 49.6556C524.223 102.156 445.523 272.156 421.948 335.106C397.123 399.92 378.262 466.864 365.598 535.106C380.67 497.021 410.179 466.434 447.698 450.006C447.698 450.006 478.523 411.981 514.548 357.681C491.274 362.535 468.282 368.652 445.673 376.006C428.173 383.356 423.448 385.856 423.448 385.856C456.855 365.737 492.148 348.933 528.823 335.681C595.723 230.306 668.623 80.6806 595.223 15.0806" fill="#003B57"/>
<defs>
<linearGradient id="paint0_linear_664_7418" x1="245.677" y1="57.666" x2="245.677" y2="507.63" gradientUnits="userSpaceOnUse">
<stop stop-color="#97D9F6"/>
<stop offset="0.92" stop-color="#0F80CC"/>
<stop offset="1" stop-color="#0F80CC"/>
</linearGradient>
</defs>
</svg>
