<svg width="300" height="300" viewBox="0 0 300 300" fill="none" xmlns="http://www.w3.org/2000/svg">
<g clip-path="url(#clip0_662_7297)">
<path d="M192.999 25.0023C209.872 39.2888 219.016 58.0408 220.999 80.0023C221.059 101.689 211.661 120.939 196.816 136.276C182.889 149.759 164.716 155.582 145.556 155.422C125.546 154.717 109.202 146.98 94.9994 133.002C79.9452 116.714 74.1808 98.1948 74.6166 76.3499C75.3335 61.912 81.8623 48.0212 90.9994 37.0023C91.6349 36.2095 92.2704 35.4167 92.9252 34.5999C102.544 23.1872 114.106 16.6864 127.999 12.0023C128.787 11.7355 129.575 11.4686 130.386 11.1937C151.095 5.4742 176.378 12.0534 192.999 25.0023ZM119.999 46.0023C113.853 54.3686 114.062 63.2369 115.267 73.2235C118.028 90.85 126.126 114.05 140.999 125.002C147.411 128.513 153.992 128.775 160.999 127.002C169.296 123.702 177.64 119.379 183.999 113.002C183.999 112.342 183.999 111.682 183.999 111.002C184.586 110.769 185.172 110.536 185.777 110.295C193.094 106.039 196.719 95.9772 199.187 88.3148C201.179 79.6783 201.386 68.5158 196.624 60.764C194.854 58.3916 192.987 56.1961 190.999 54.0023C189.868 52.7493 189.868 52.7493 188.714 51.471C183.792 46.0631 183.792 46.0631 176.999 44.0023C176.999 43.3423 176.999 42.6823 176.999 42.0023C159.974 34.54 134.565 31.4366 119.999 46.0023Z" fill="#1AC7E3"/>
<path d="M276.001 162.002C278.879 164.511 281.487 167.129 284.001 170.002C284.519 170.579 285.037 171.157 285.571 171.752C295.787 184.161 300.598 200.353 300.501 216.189C300.495 217.282 300.49 218.375 300.484 219.501C300.031 240.164 290.499 257.984 275.665 272.248C268.843 278.061 261.089 282.237 253.001 286.002C252.02 286.461 251.039 286.92 250.028 287.392C238.938 291.632 226.669 290.356 215.001 290.002C215.001 289.342 215.001 288.682 215.001 288.002C214.162 288.056 213.323 288.11 212.458 288.166C208.488 287.978 205.308 286.888 201.688 285.377C201.03 285.108 200.371 284.838 199.693 284.561C194.333 282.296 189.686 279.449 185.001 276.002C183.454 275.074 183.454 275.074 181.876 274.127C177.924 271.206 175.035 267.85 172.001 264.002C171.264 263.074 170.526 262.146 169.767 261.189C157.651 244.927 153.216 225.18 155.665 205.098C158.7 186.182 169.478 169.894 184.626 158.564C186.401 157.352 188.192 156.162 190.001 155.002C190.75 154.521 191.499 154.04 192.271 153.545C219.566 137.266 251.949 143.051 276.001 162.002ZM203.001 180.002C197.49 186.982 196.433 198.246 197.419 206.877C197.661 208.587 197.918 210.296 198.188 212.002C198.329 212.914 198.469 213.826 198.613 214.766C202.295 239.981 202.295 239.981 217.052 259.799C223.98 264.075 231.243 263.246 239.001 262.002C253.167 258.317 266.194 250.216 274.72 238.209C280.476 228.293 282.574 216.604 280.251 205.377C275.354 192.154 266.747 182.749 253.978 176.529C237.448 169.388 217.204 166.586 203.001 180.002Z" fill="#1AC7E3"/>
<path d="M117.361 159.545C132.081 172.071 142.105 188.593 144.001 208.002C145.488 231.533 139.924 250.197 124.4 268.049C114.659 278.451 103.567 283.973 90.0012 288.002C89.3412 288.332 88.6812 288.662 88.0012 289.002C84.3518 289.54 80.681 289.767 77.0012 290.002C76.0047 290.069 75.0083 290.136 73.9816 290.205C57.2512 290.794 38.7259 285.287 26.0012 274.002C26.0012 273.342 26.0012 272.682 26.0012 272.002C25.1485 271.652 25.1485 271.652 24.2785 271.295C19.6229 268.652 16.4224 264.045 13.0012 260.002C12.5113 259.433 12.0215 258.865 11.5168 258.279C-0.998313 242.392 -1.21996 222.183 0.00117743 203.002C0.61098 198.355 2.03647 194.253 4.00118 190.002C4.39047 189.033 4.77977 188.063 5.18086 187.064C13.6515 167.818 30.0528 155.716 49.0012 148.002C71.2966 139.776 98.7275 144.78 117.361 159.545ZM60.0012 172.002C59.3038 172.186 58.6064 172.371 57.8879 172.561C51.752 174.479 46.193 178.314 42.8684 183.908C41.9399 185.956 41.9399 185.956 41.0012 189.002C40.6712 189.992 40.3412 190.982 40.0012 192.002C38.1209 211.781 45.482 239.743 58.0012 255.002C63.3274 260.632 69.2616 262.31 76.8762 262.627C90.728 262.382 101.752 254.606 111.22 245.002C119.554 236.152 124.826 226.247 125.439 213.814C123.915 200.541 118.851 190.677 108.661 181.978C95.0631 171.875 76.4188 167.283 60.0012 172.002Z" fill="#1AC7E3"/>
</g>
<defs>
<clipPath id="clip0_662_7297">
<rect width="300" height="300" fill="white"/>
</clipPath>
</defs>
</svg>
