<svg width="117" height="111" viewBox="0 0 117 111" fill="none" xmlns="http://www.w3.org/2000/svg">
<path d="M18.2461 23.5C18.2461 23.5 69.6378 86.0812 68.942 86.5406C68.2461 87 20.2461 73.5 20.2461 73.5L18.2461 23.5Z" fill="#5CB4EC"/>
<path d="M98.2461 0L116.801 67.4697L116.746 103.144H78.2461L33.2461 41.5L98.2461 0Z" fill="#245995"/>
<path d="M20.2472 73.004C19.9816 72.7399 65.7472 85.5048 65.7472 85.5048L78.2472 103.005L20.2472 110.984C20.2472 110.984 20.5129 73.2682 20.2472 73.004Z" fill="#69C1F6"/>
<path d="M21 110.984L0 62C0 62 14.9901 30.1324 18.2465 23.5C20.9296 41.5763 21 110.984 21 110.984Z" fill="#235794"/>
<path d="M37.7461 48L18.2461 23.5L97.2461 0.5L37.7461 48Z" fill="#29B6F6"/>
</svg>
