<!DOCTYPE svg PUBLIC "-//W3C//DTD SVG 1.1//EN" "http://www.w3.org/Graphics/SVG/1.1/DTD/svg11.dtd">
<!-- Uploaded to: SVG Repo, www.svgrepo.com, Transformed by: SVG Repo Mixer Tools -->
<svg fill="#3A86FF" height="800px" width="800px" version="1.1" id="Layer_1" xmlns="http://www.w3.org/2000/svg" xmlns:xlink="http://www.w3.org/1999/xlink" viewBox="0 0 512.007 512.007" xml:space="preserve">
<g id="SVGRepo_bgCarrier" stroke-width="0"/>
<g id="SVGRepo_tracerCarrier" stroke-linecap="round" stroke-linejoin="round"/>
<g id="SVGRepo_iconCarrier"> <g> <g> <path d="M251.452,221.005c-37.845,6.255-68.378,36.787-74.633,74.633c-10.334,62.473,43.187,115.994,105.66,105.66 c37.854-6.263,68.378-36.796,74.633-74.641C367.445,264.184,313.924,210.672,251.452,221.005z"/> </g> </g> <g> <g> <path d="M507.733,136.833h-153.6c-2.355,0-4.267-1.911-4.267-4.267v-128c0-2.355-1.911-4.267-4.267-4.267H8.533 C3.823,0.299,0,4.122,0,8.833v349.867c0,4.71,3.823,8.533,8.533,8.533h155.085c3.208,0,5.146-3.345,3.772-6.246 c-4.659-9.847-7.586-20.796-9.037-32.136c-8.175-63.855,38.366-123.844,102.647-127.266 c63.198-3.362,115.678,47.078,115.678,109.56c0,17.493-6.818,34.944-14.805,49.852c-1.51,2.833,0.563,6.238,3.772,6.238h137.822 c4.71,0,8.533-3.823,8.533-8.533v-217.6C512,138.744,510.089,136.833,507.733,136.833z"/> </g> </g> <g> <g> <path d="M438.4,494.661L349.696,389.82c-1.613-1.903-4.454-1.971-6.238-0.23c-4.301,4.198-8.943,8.047-13.892,11.494 c-2.074,1.451-2.517,4.309-0.888,6.246l86.997,102.818c0.956,1.126,2.483,1.741,3.942,1.51 c10.795-1.698,16.717-7.45,19.328-12.237C439.782,497.886,439.535,496.001,438.4,494.661z"/> </g> </g> <g> <g> <path d="M510.353,111.89L374.298,1.323c-2.935-2.389-7.364-0.324-7.364,3.43V115.32c0,2.458,2.014,4.446,4.506,4.446h136.055 C511.718,119.766,513.621,114.544,510.353,111.89z"/> </g> </g> </g>
</svg>