<svg width="514" height="522" viewBox="0 0 514 522" fill="none" xmlns="http://www.w3.org/2000/svg">
<path d="M404.898 248.009H265.147V181.203H248.043V248.009H108.294C103.571 248.009 99.7422 251.837 99.7422 256.56V331.918H116.847V265.113H396.347V331.918H413.451V256.56C413.45 251.837 409.621 248.009 404.898 248.009Z" fill="#FFD24D"/>
<path d="M291.818 134.516H221.383V192.6H291.818V134.516Z" fill="#8B7E7F"/>
<path d="M316.293 201.158H196.895C192.173 201.158 188.344 197.33 188.344 192.606C188.344 187.882 192.173 184.055 196.895 184.055H316.294C321.018 184.055 324.845 187.883 324.845 192.606C324.845 197.33 321.016 201.158 316.293 201.158Z" fill="#C2B8B9"/>
<path d="M364.887 124.023C364.887 136.12 355.081 145.926 342.984 145.926H170.204C158.107 145.926 148.301 136.12 148.301 124.023V21.9034C148.301 9.80593 158.107 0 170.204 0H342.984C355.081 0 364.887 9.80593 364.887 21.9034V124.023Z" fill="#1AC7E3"/>
<path d="M440.111 455.039H369.676V513.124H440.111V455.039Z" fill="#8B7E7F"/>
<path d="M464.596 521.681H345.198C340.476 521.681 336.646 517.853 336.646 513.13C336.646 508.405 340.476 504.578 345.198 504.578H464.595C469.32 504.578 473.147 508.406 473.147 513.13C473.148 517.853 469.319 521.681 464.596 521.681Z" fill="#C2B8B9"/>
<path d="M513.191 444.538C513.191 456.635 503.384 466.441 491.287 466.441H318.507C306.409 466.441 296.604 456.635 296.604 444.538V342.419C296.604 330.322 306.409 320.516 318.507 320.516H491.286C503.384 320.516 513.19 330.323 513.19 342.419L513.191 444.538Z" fill="#1AC7E3"/>
<path d="M143.511 455.039H73.0762V513.124H143.511V455.039Z" fill="#8B7E7F"/>
<path d="M167.991 521.681H48.5927C43.8701 521.681 40.041 517.853 40.041 513.13C40.041 508.405 43.8701 504.578 48.5927 504.578H167.991C172.716 504.578 176.543 508.406 176.543 513.13C176.543 517.853 172.714 521.681 167.991 521.681Z" fill="#C2B8B9"/>
<path d="M216.586 444.538C216.586 456.635 206.78 466.441 194.683 466.441H21.9034C9.80593 466.441 0 456.635 0 444.538V342.419C0 330.322 9.80593 320.516 21.9034 320.516H194.683C206.78 320.516 216.586 330.323 216.586 342.419V444.538Z" fill="#1AC7E3"/>
</svg>
