<!DOCTYPE svg PUBLIC "-//W3C//DTD SVG 1.1//EN" "http://www.w3.org/Graphics/SVG/1.1/DTD/svg11.dtd">
<!-- Uploaded to: SVG Repo, www.svgrepo.com, Transformed by: SVG Repo Mixer Tools -->
<svg fill="#1AC7E3" version="1.1" id="Layer_1" xmlns="http://www.w3.org/2000/svg" xmlns:xlink="http://www.w3.org/1999/xlink" viewBox="0 0 512 512" xml:space="preserve" width="800px" height="800px">
<g id="SVGRepo_bgCarrier" stroke-width="0"/>
<g id="SVGRepo_tracerCarrier" stroke-linecap="round" stroke-linejoin="round"/>
<g id="SVGRepo_iconCarrier"> <g> <g> <path d="M242.987,0v456.766h118.418v23.948H100.184V339.302h63.501v-75.749h-13.118l17.622-68.905h-29.68v-43.061h-31.285v43.061 H61.859v-43.061H30.574v43.061H0.894l17.622,68.905H5.398v75.749h63.501V512H392.69v-55.233h118.417V0H242.987z M127.895,225.933 l-9.62,37.619H50.806l-9.62-37.619H127.895z M36.683,308.016v-13.178h95.716v13.178H36.683z M479.821,425.481H274.272V31.285 h205.549V425.481z"/> </g> </g> <g> <g> <path d="M377.046,242.276c-45.056,0-81.711,36.655-81.711,81.711s36.656,81.711,81.711,81.711s81.711-36.655,81.711-81.711 S422.102,242.276,377.046,242.276z M377.046,374.413c-27.805,0-50.425-22.62-50.425-50.425s22.621-50.425,50.425-50.425 s50.425,22.62,50.425,50.425S404.851,374.413,377.046,374.413z"/> </g> </g> <g> <g> <rect x="387.999" y="313.488" width="20.334" height="20.334"/> </g> </g> <g> <g> <rect x="345.764" y="313.488" width="20.334" height="20.334"/> </g> </g> <g> <g> <path d="M377.046,55.323c-45.056,0-81.711,36.655-81.711,81.711s36.656,81.711,81.711,81.711s81.711-36.655,81.711-81.711 S422.102,55.323,377.046,55.323z M377.046,187.46c-27.805,0-50.425-22.62-50.425-50.426c0-27.805,22.621-50.425,50.425-50.425 s50.425,22.62,50.425,50.425S404.851,187.46,377.046,187.46z"/> </g> </g> <g> <g> <rect x="387.999" y="126.538" width="20.334" height="20.334"/> </g> </g> <g> <g> <rect x="345.764" y="126.538" width="20.334" height="20.334"/> </g> </g> </g>
</svg>