<svg width="528" height="512" viewBox="0 0 528 512" fill="none" xmlns="http://www.w3.org/2000/svg">
<path d="M293.028 393.235C293.028 458.825 239.844 512 174.233 512C108.613 512 55.4297 458.825 55.4297 393.235C55.4297 327.645 108.613 274.47 174.233 274.47C239.844 274.47 293.028 327.645 293.028 393.235Z" fill="#FF6600"/>
<path d="M528.001 226.954C528.001 292.535 474.817 345.719 409.206 345.719C343.586 345.719 290.402 292.535 290.402 226.954C290.402 161.364 343.586 108.18 409.206 108.18C474.817 108.18 528.001 161.364 528.001 226.954Z" fill="#FFCC00"/>
<path d="M237.598 224.337C237.598 289.918 184.415 343.102 118.795 343.102C53.1925 343.102 0 289.918 0 224.337C0 158.747 53.1925 105.563 118.795 105.563C184.415 105.563 237.598 158.747 237.598 224.337Z" fill="#0089CC"/>
<path d="M475.197 393.235C475.197 458.825 422.013 512 356.385 512C290.782 512 237.59 458.825 237.59 393.235C237.59 327.645 290.782 274.47 356.385 274.47C422.013 274.47 475.197 327.645 475.197 393.235Z" fill="#009939"/>
<path d="M382.798 118.766C382.798 184.356 329.606 237.531 263.995 237.531C198.384 237.531 145.191 184.356 145.191 118.766C145.191 53.1766 198.384 0.00136516 263.995 0.00136516C329.606 0.00136516 382.798 53.1766 382.798 118.766Z" fill="#BF0000"/>
<path d="M290.402 226.959C290.402 229.457 290.62 231.903 290.777 234.367C343.473 222.214 382.801 175.115 382.801 118.745C382.801 116.246 382.583 113.791 382.427 111.328C329.731 123.49 290.402 170.588 290.402 226.959Z" fill="#FC0007"/>
<path d="M306.082 285.762C326.556 321.543 365.031 345.719 409.219 345.719C427.228 345.719 444.236 341.592 459.537 334.419C439.072 298.638 400.597 274.462 356.401 274.462C338.391 274.462 321.383 278.588 306.082 285.762Z" fill="#1CD306"/>
<path d="M237.602 393.228C237.602 422.245 248.035 448.798 265.33 469.422C282.608 448.798 293.041 422.245 293.041 393.228C293.041 364.212 282.608 337.659 265.33 317.035C248.035 337.659 237.602 364.212 237.602 393.228Z" fill="#0F7504"/>
<path d="M71.7539 333.369C86.1842 339.603 102.069 343.094 118.789 343.094C162.542 343.094 200.659 319.388 221.282 284.19C206.851 277.957 190.958 274.474 174.246 274.474C130.494 274.474 92.3673 298.18 71.7539 333.369Z" fill="#0C5E87"/>
<path d="M145.709 108.728C145.43 112.036 145.195 115.362 145.195 118.749C145.195 175.075 184.463 222.13 237.098 234.336C237.368 231.028 237.603 227.702 237.603 224.324C237.603 167.997 198.344 120.925 145.709 108.728Z" fill="#6B0001"/>
<path d="M156.806 378.529H138.221C121.814 378.529 108.473 365.236 108.473 348.877V180.716C108.473 164.357 121.814 151.055 138.221 151.055H371.256C387.664 151.055 400.996 164.357 400.996 180.716V348.877C400.996 365.236 387.664 378.529 371.256 378.529H291.868L132.587 456.586L156.806 378.529Z" fill="white"/>
</svg>
