<svg width="573" height="573" viewBox="0 0 573 573" fill="none" xmlns="http://www.w3.org/2000/svg">
<path d="M218.672 250.859L205.391 287.344H232.266L218.672 250.859Z" fill="white"/>
<path d="M447.5 99.4531H124.766C111.875 99.4531 101.328 110 101.328 122.891V445.625C101.328 458.516 111.875 469.062 124.766 469.062H447.5C460.391 469.062 470.937 458.516 470.937 445.625V122.891C470.937 109.922 460.391 99.4531 447.5 99.4531ZM370.312 227.969H390.156V326.25H370.312V227.969ZM279.297 227.969H311.172C323.281 227.969 331.094 228.437 334.766 229.453C340.391 230.937 345.078 234.141 348.906 239.062C352.734 243.984 354.609 250.391 354.609 258.203C354.609 264.219 353.516 269.297 351.328 273.437C349.141 277.578 346.328 280.781 342.969 283.125C339.609 285.469 336.172 287.031 332.656 287.812C327.891 288.75 321.094 289.219 312.031 289.219H299.062V326.25H279.297V227.969ZM208.437 227.969H229.453L268.75 326.25H247.187L238.594 303.906H199.297L191.172 326.25H170.078L208.437 227.969ZM387.422 441.484H156.328C141.172 441.484 128.906 429.219 128.906 414.063V183.594C128.906 179.297 132.422 175.781 136.719 175.781C141.016 175.781 144.531 179.297 144.531 183.594V414.063C144.531 420.547 149.844 425.859 156.328 425.859H387.422C391.719 425.859 395.234 429.375 395.234 433.672C395.234 437.969 391.797 441.484 387.422 441.484Z" fill="white"/>
<path d="M325.703 270.938C328.359 269.922 330.391 268.281 331.875 266.094C333.359 263.906 334.141 261.328 334.141 258.438C334.141 254.844 333.125 251.875 331.016 249.609C328.906 247.266 326.25 245.859 323.047 245.234C320.703 244.766 315.937 244.531 308.75 244.531H299.141V272.422H310C317.812 272.5 323.047 271.953 325.703 270.938Z" fill="white"/>
<path d="M387.422 425.859H156.328C149.844 425.859 144.531 420.547 144.531 414.063V183.594C144.531 179.297 141.016 175.781 136.719 175.781C132.422 175.781 128.906 179.297 128.906 183.594V414.063C128.906 429.219 141.172 441.484 156.328 441.484H387.422C391.719 441.484 395.234 437.969 395.234 433.672C395.234 429.375 391.797 425.859 387.422 425.859Z" fill="#06F3FF"/>
<path d="M556.641 198.516C565.234 198.516 572.266 191.484 572.266 182.891C572.266 174.297 565.234 167.266 556.641 167.266H502.187V122.891C502.187 92.7344 477.656 68.2031 447.5 68.2031H425.781V15.625C425.781 7.03125 418.75 0 410.156 0C401.562 0 394.531 7.03125 394.531 15.625V68.2031H358.203V15.625C358.203 7.03125 351.172 0 342.578 0C333.984 0 326.953 7.03125 326.953 15.625V68.2031H290.625V15.625C290.625 7.03125 283.594 0 275 0C266.406 0 259.375 7.03125 259.375 15.625V68.2031H223.047V15.625C223.047 7.03125 216.016 0 207.422 0C198.828 0 191.797 7.03125 191.797 15.625V68.2031H124.766C94.6094 68.2031 70.0781 92.7344 70.0781 122.891V167.266H15.625C7.03125 167.266 0 174.297 0 182.891C0 191.484 7.03125 198.516 15.625 198.516H70.0781V234.844H15.625C7.03125 234.844 0 241.875 0 250.469C0 259.063 7.03125 266.094 15.625 266.094H70.0781V302.422H15.625C7.03125 302.422 0 309.453 0 318.047C0 326.641 7.03125 333.672 15.625 333.672H70.0781V370H15.625C7.03125 370 0 377.031 0 385.625C0 394.219 7.03125 401.25 15.625 401.25H70.0781V445.625C70.0781 475.781 94.6094 500.313 124.766 500.313H148.828V556.953C148.828 565.547 155.859 572.578 164.453 572.578C173.047 572.578 180.078 565.547 180.078 556.953V500.313H216.406V556.953C216.406 565.547 223.438 572.578 232.031 572.578C240.625 572.578 247.656 565.547 247.656 556.953V500.313H283.984V556.953C283.984 565.547 291.016 572.578 299.609 572.578C308.203 572.578 315.234 565.547 315.234 556.953V500.313H351.562V556.953C351.562 565.547 358.594 572.578 367.188 572.578C375.781 572.578 382.812 565.547 382.812 556.953V500.313H447.5C477.656 500.313 502.187 475.781 502.187 445.625V401.25H556.641C565.234 401.25 572.266 394.219 572.266 385.625C572.266 377.031 565.234 370 556.641 370H502.187V333.672H556.641C565.234 333.672 572.266 326.641 572.266 318.047C572.266 309.453 565.234 302.422 556.641 302.422H502.187V266.094H556.641C565.234 266.094 572.266 259.063 572.266 250.469C572.266 241.875 565.234 234.844 556.641 234.844H502.187V198.516H556.641ZM470.937 445.547C470.937 458.438 460.391 468.984 447.5 468.984H124.766C111.875 468.984 101.328 458.438 101.328 445.547V122.891C101.328 110 111.875 99.4531 124.766 99.4531H447.5C460.391 99.4531 470.937 110 470.937 122.891V445.547Z" fill="#005BFF"/>
<path d="M199.297 303.906H238.594L247.187 326.25H268.75L229.375 227.969H208.359L170.078 326.25H191.172L199.297 303.906ZM218.672 250.859L232.188 287.344H205.391L218.672 250.859ZM299.141 289.219H312.109C321.094 289.219 327.969 288.75 332.734 287.812C336.25 287.031 339.687 285.469 343.047 283.125C346.406 280.781 349.219 277.578 351.406 273.437C353.594 269.297 354.687 264.219 354.687 258.203C354.687 250.391 352.813 243.984 348.984 239.062C345.156 234.141 340.469 230.937 334.844 229.453C331.172 228.437 323.281 227.969 311.25 227.969H279.297V326.25H299.141V289.219ZM299.141 244.609H308.75C315.937 244.609 320.625 244.844 323.047 245.312C326.25 245.859 328.906 247.344 331.016 249.687C333.125 252.031 334.141 255 334.141 258.516C334.141 261.406 333.359 263.984 331.875 266.172C330.391 268.359 328.281 270 325.703 271.016C323.047 272.031 317.812 272.578 310 272.578H299.141V244.609ZM370.312 227.969H390.156V326.25H370.312V227.969Z" fill="#005BFF"/>
</svg>
