<svg width="624" height="701" viewBox="0 0 624 701" fill="none" xmlns="http://www.w3.org/2000/svg">
<path d="M317.482 23.0744L31.2109 518.891L56.91 533.729L343.181 37.9123L317.482 23.0744Z" fill="#E10098"/>
<path d="M597.845 479.273H25.2949V508.948H597.845V479.273Z" fill="#E10098"/>
<path d="M51.4668 470.246L36.6289 495.945L322.999 661.288L337.837 635.589L51.4668 470.246Z" fill="#E10098"/>
<path d="M300.27 39.3088L285.432 65.0078L571.802 230.35L586.64 204.651L300.27 39.3088Z" fill="#E10098"/>
<path d="M323.077 39.22L36.707 204.562L51.545 230.262L337.915 64.919L323.077 39.22Z" fill="#E10098"/>
<path d="M305.937 23.0761L280.238 37.9141L566.509 533.73L592.208 518.892L305.937 23.0761Z" fill="#E10098"/>
<path d="M77.6945 184.875H48.0195V515.575H77.6945V184.875Z" fill="#E10098"/>
<path d="M575.345 184.875H545.67V515.575H575.345V184.875Z" fill="#E10098"/>
<path d="M554.07 482.477L305.004 626.281L317.967 648.733L567.033 504.928L554.07 482.477Z" fill="#E10098"/>
<path d="M614.67 525.229C608.501 535.948 599.291 544.596 588.206 550.078C577.12 555.561 564.657 557.631 552.394 556.027C540.131 554.423 528.62 549.217 519.317 541.068C510.014 532.919 503.338 522.193 500.134 510.248C496.93 498.303 497.342 485.676 501.317 473.965C505.292 462.254 512.652 451.986 522.466 444.46C532.28 436.934 544.106 432.488 556.447 431.686C568.788 430.884 581.09 433.762 591.795 439.954C606.123 448.242 616.577 461.875 620.866 477.862C625.154 493.848 622.926 510.883 614.67 525.229Z" fill="#E10098"/>
<path d="M116.67 237.729C110.501 248.448 101.291 257.096 90.2056 262.578C79.1198 268.061 66.6568 270.131 54.394 268.527C42.1312 266.923 30.6199 261.717 21.3172 253.568C12.0144 245.419 5.33841 234.693 2.13418 222.748C-1.07006 210.803 -0.65847 198.176 3.31683 186.465C7.29214 174.754 14.6524 164.486 24.4661 156.96C34.2798 149.434 46.1057 144.988 58.4469 144.186C70.7882 143.384 83.0899 146.262 93.7951 152.454C108.123 160.742 118.577 174.375 122.866 190.362C127.154 206.348 124.926 223.383 116.67 237.729Z" fill="#E10098"/>
<path d="M8.66905 525.225C2.47649 514.52 -0.400888 502.218 0.401118 489.877C1.20312 477.535 5.64846 465.71 13.1745 455.896C20.7005 446.082 30.9688 438.722 42.6797 434.747C54.3907 430.771 67.0177 430.36 78.9627 433.564C90.9076 436.768 101.633 443.444 109.783 452.747C117.932 462.05 123.138 473.561 124.742 485.824C126.346 498.087 124.276 510.55 118.793 521.635C113.311 532.721 104.663 541.931 93.944 548.1C79.5982 556.356 62.5632 558.584 46.5764 554.296C30.5897 550.007 16.957 539.552 8.66905 525.225Z" fill="#E10098"/>
<path d="M506.669 237.725C500.476 227.02 497.599 214.718 498.401 202.377C499.203 190.035 503.648 178.21 511.174 168.396C518.7 158.582 528.969 151.222 540.68 147.247C552.391 143.271 565.018 142.86 576.963 146.064C588.908 149.268 599.633 155.944 607.783 165.247C615.932 174.55 621.138 186.061 622.742 198.324C624.346 210.587 622.276 223.05 616.793 234.135C611.311 245.221 602.663 254.431 591.944 260.6C577.598 268.856 560.563 271.084 544.576 266.796C528.59 262.507 514.957 252.052 506.669 237.725Z" fill="#E10098"/>
<path d="M311.67 700.227C299.309 700.227 287.225 696.561 276.947 689.693C266.669 682.826 258.658 673.065 253.927 661.644C249.197 650.224 247.959 637.657 250.371 625.533C252.782 613.41 258.735 602.273 267.476 593.532C276.217 584.792 287.353 578.839 299.477 576.428C311.601 574.016 324.167 575.254 335.588 579.984C347.008 584.715 356.769 592.725 363.637 603.003C370.504 613.282 374.17 625.365 374.17 637.727C374.193 645.941 372.592 654.078 369.459 661.672C366.327 669.265 361.724 676.164 355.916 681.972C350.107 687.781 343.208 692.383 335.615 695.516C328.022 698.649 319.884 700.25 311.67 700.227Z" fill="#E10098"/>
<path d="M311.67 125C299.309 125 287.225 121.334 276.947 114.467C266.669 107.599 258.658 97.8381 253.927 86.4177C249.197 74.9974 247.959 62.4307 250.371 50.3069C252.782 38.1831 258.735 27.0466 267.476 18.3059C276.217 9.56507 287.353 3.61252 299.477 1.20095C311.601 -1.21063 324.167 0.0270803 335.588 4.75756C347.008 9.48803 356.769 17.4988 363.637 27.7769C370.504 38.055 374.17 50.1387 374.17 62.5C374.193 70.7141 372.592 78.8518 369.459 86.445C366.327 94.0383 361.724 100.937 355.916 106.746C350.107 112.554 343.208 117.157 335.615 120.29C328.022 123.422 319.884 125.023 311.67 125Z" fill="#E10098"/>
</svg>
