<svg width="686" height="701" viewBox="0 0 686 701" fill="none" xmlns="http://www.w3.org/2000/svg">
<path d="M342.868 700.08C250.993 699.124 163.26 661.714 98.9651 596.078C34.6701 530.442 -0.921608 441.956 0.0181478 350.08C-0.158137 257.637 35.8621 168.798 100.368 102.58C131.867 70.1237 169.561 44.3205 211.216 26.6999C252.871 9.07933 297.64 0 342.868 0C388.097 0 432.865 9.07933 474.52 26.6999C516.175 44.3205 553.869 70.1237 585.368 102.58C649.874 168.798 685.894 257.637 685.718 350.08C686.658 441.956 651.066 530.442 586.771 596.078C522.476 661.714 434.743 699.124 342.868 700.08Z" fill="#CE3F31"/>
<path d="M239.591 525.452H229.591C220.775 525.598 211.974 524.649 203.391 522.627C195.596 520.439 188.813 515.592 184.216 508.927C178.682 501.386 175.163 492.557 173.991 483.277C172.336 468.939 171.618 454.509 171.841 440.077C172.105 425.99 171.437 411.901 169.841 397.902C168.775 389.384 165.257 381.359 159.716 374.802C156.388 371.434 152.376 368.819 147.952 367.133C143.527 365.446 138.792 364.728 134.066 365.027V335.077C138.792 335.376 143.527 334.658 147.952 332.972C152.376 331.285 156.388 328.67 159.716 325.302C165.257 318.745 168.775 310.72 169.841 302.202C171.437 288.203 172.105 274.114 171.841 260.027C171.598 245.572 172.3 231.116 173.941 216.752C175.113 207.472 178.632 198.643 184.166 191.102C188.763 184.437 195.546 179.59 203.341 177.402C211.924 175.38 220.725 174.431 229.541 174.577H239.541V203.077H233.891C221.225 203.077 213.466 206.41 210.616 213.077C206.628 230.867 205.18 249.131 206.316 267.327C207.628 287.187 204.058 307.066 195.916 325.227C189.067 337.339 177.724 346.266 164.341 350.077C170.972 351.903 177.177 355.02 182.6 359.25C188.023 363.48 192.557 368.74 195.941 374.727C204.083 392.871 207.662 412.732 206.366 432.577C205.23 450.773 206.678 469.038 210.666 486.827C213.533 493.494 221.291 496.827 233.941 496.827H239.591V525.452ZM279.591 446.927H305.466V360.577H341.941L391.191 446.927H420.791L368.866 357.777C382.234 355.31 394.25 348.07 402.68 337.406C411.109 326.742 415.378 313.378 414.691 299.802C414.691 257.302 384.691 242.452 343.316 242.452H279.716L279.591 446.927ZM305.466 339.427V263.327H339.441C371.241 263.327 388.691 272.977 388.691 299.802C388.691 326.627 371.191 339.377 339.441 339.377L305.466 339.427ZM444.391 174.652H454.391C463.208 174.506 472.009 175.455 480.591 177.477C488.387 179.665 495.17 184.512 499.766 191.177C505.3 198.718 508.82 207.547 509.991 216.827C511.633 231.191 512.334 245.647 512.091 260.102C511.827 274.189 512.496 288.278 514.091 302.277C515.158 310.795 518.676 318.82 524.216 325.377C527.545 328.745 531.557 331.36 535.981 333.046C540.406 334.733 545.141 335.451 549.866 335.152V364.927C545.141 364.628 540.406 365.346 535.981 367.033C531.557 368.719 527.545 371.334 524.216 374.702C518.676 381.259 515.158 389.284 514.091 397.802C512.496 411.801 511.827 425.89 512.091 439.977C512.334 454.432 511.633 468.888 509.991 483.252C508.82 492.532 505.3 501.361 499.766 508.902C495.17 515.567 488.387 520.414 480.591 522.602C472.009 524.624 463.208 525.573 454.391 525.427H444.391V496.927H450.041C462.708 496.927 470.466 493.594 473.316 486.927C477.398 469.117 478.93 450.818 477.866 432.577C476.554 412.717 480.125 392.839 488.266 374.677C495.083 362.63 506.404 353.782 519.741 350.077C506.35 346.272 494.996 337.344 488.141 325.227C480 307.066 476.429 287.187 477.741 267.327C478.878 249.131 477.43 230.867 473.441 213.077C470.575 206.41 462.816 203.077 450.166 203.077H444.516L444.391 174.652Z" fill="white"/>
</svg>
